<svg xmlns="http://www.w3.org/2000/svg" xmlns:xlink="http://www.w3.org/1999/xlink" width="160.08" height="52.756" viewBox="0 0 160.08 52.756"><defs><clipPath id="a"><rect width="43.626" height="52.756" fill="none"/></clipPath></defs><g transform="translate(-179.546 -2986.164)"><rect width="138.267" height="42" transform="translate(179.546 2996.92)" fill="#a3314f"/><g transform="translate(296 2986.164)"><g clip-path="url(#a)"><path d="M34.208,105.473h0c-.014,5.679-.019,11.358-.047,17.037a2.709,2.709,0,0,1-3.738,2.745,2.761,2.761,0,0,1-1.716-2.807c.016-3.976-.073-7.954.038-11.927a2.967,2.967,0,0,0-2.76-3.227c-1.613.008-2.718,1.288-2.724,3.228,0,1.212,0,2.423,0,3.635-.007,1.852-1.1,3.112-2.7,3.128a2.782,2.782,0,0,1-2.755-3.068q-.03-4.372-.045-8.745l-8.128.01c.612,3.821,1.208,7.644,1.84,11.461.971,5.859,2,11.708,2.939,17.571a4.142,4.142,0,0,0,4.417,3.721q10.787-.137,21.577,0a4.207,4.207,0,0,0,4.456-3.941c.926-6.208,1.969-12.4,2.988-18.593.561-3.411,1.17-6.814,1.757-10.221h0l-15.4-.009h0m-13.63,20.9a2.715,2.715,0,1,1,2.679-2.788,2.739,2.739,0,0,1-2.679,2.788" transform="translate(-7.809 -85.482)" fill="#c8d7e7"/><path d="M139.259,8.42c6.925-.073,11.662,4.67,11.787,11.8h3.617A15.243,15.243,0,0,0,150.077,8.9c-3.011-2.948-6.725-4.034-10.818-4.14h0V8.42" transform="translate(-112.864 -3.859)" fill="#adc0cf"/><path d="M13.254,20.218c.141-4.868,2.024-8.675,6.625-10.8a11.569,11.569,0,0,1,5.16-1q0-1.83.005-3.66c-9.115.164-15.516,6.587-15.408,15.46h3.617" transform="translate(-7.809 -3.855)" fill="#adc0cf"/><path d="M154.342,86.073h0a5.355,5.355,0,0,1-3.434.2.838.838,0,0,1-.262-.2c-3,0-6,.176-8.992.031a8.982,8.982,0,0,0-1.839-.053,4.1,4.1,0,0,0-.883,3.565c.016-.016.03-.032.047-.048a2.9,2.9,0,0,1,1.437-.222q6.161-.01,12.323,0a2.079,2.079,0,0,1,1.606.363c1.738-.008,1.824-.092,1.826-1.763,0-1.806-.054-1.864-1.827-1.876" transform="translate(-112.543 -69.711)" fill="#e0edfe"/><path d="M153.031,103.573q-6.161-.018-12.323,0a2.9,2.9,0,0,0-1.437.222c-.017.016-.031.032-.047.048,0,.029.007.058.011.087h0l15.4.009a2.077,2.077,0,0,0-1.606-.363" transform="translate(-112.837 -83.935)" fill="#e0edfe"/><path d="M201.108,86.326h-.08a.841.841,0,0,0,.263.2,5.355,5.355,0,0,0,3.434-.2h-3.617" transform="translate(-162.925 -69.964)" fill="#e0edfe"/><path d="M91.176,4.342a.826.826,0,0,1-.226.289,1.082,1.082,0,0,0,1.215.831q3.348-.03,6.7,0a1.07,1.07,0,0,0,1.212-.832.783.783,0,0,1-.213-.262C99.7,3.2,99.42,2.016,100.093.9h0a1.074,1.074,0,0,0-1.23-.9q-3.35.03-6.7,0a1.071,1.071,0,0,0-1.23.9c.665,1.107.378,2.28.242,3.441" transform="translate(-73.699 0)" fill="#834a3c"/><path d="M137.192,8.228a.781.781,0,0,0,.213.262c.006-.024.015-.044.02-.069V4.762c-.673,1.114-.392,2.294-.233,3.466" transform="translate(-111.031 -3.859)" fill="#834a3c"/><path d="M90.9,8.417h0c.006.025.015.046.021.07a.826.826,0,0,0,.226-.289c.136-1.161.423-2.334-.242-3.441q0,1.83-.005,3.66" transform="translate(-73.675 -3.855)" fill="#834a3c"/><path d="M9.262,89.535a1.436,1.436,0,0,1,.644.178c.021.017.04.036.059.054A4.109,4.109,0,0,0,9.083,86.2l-3.561.023a.863.863,0,0,1-.236.192,5.263,5.263,0,0,1-3.459-.192C.053,86.238,0,86.295,0,88.1c0,1.672.087,1.754,1.826,1.763h0a1.188,1.188,0,0,1,.922-.339c2.171-.038,4.343-.055,6.514.01" transform="translate(0 -69.863)" fill="#e0edfe"/><path d="M17.773,103.835c-.019-.018-.038-.036-.059-.054a1.438,1.438,0,0,0-.644-.178c-2.171-.064-4.343-.047-6.514-.009a1.188,1.188,0,0,0-.922.339l8.128-.01c0-.029.007-.059.011-.088" transform="translate(-7.808 -83.932)" fill="#e0edfe"/><path d="M13.1,86.517a.866.866,0,0,0,.236-.192H9.642a5.261,5.261,0,0,0,3.459.192" transform="translate(-7.814 -69.963)" fill="#e0edfe"/><path d="M49.6,89.788c.423.418.337.982.342,1.5.019,2.234.006,4.468.008,6.7a8.427,8.427,0,0,0,.037,1.135,2.357,2.357,0,0,0,4.7-.008,8.549,8.549,0,0,0,.041-1.134c.008-1.136-.04-2.274.023-3.408a3.15,3.15,0,0,1,3.033-3.2,3.182,3.182,0,0,1,3.063,3.284c.037,3.749.009,7.5.013,11.247a7.39,7.39,0,0,0,.091,1.585,2.473,2.473,0,0,0,2.329,1.973,2.44,2.44,0,0,0,2.245-1.921,6.593,6.593,0,0,0,.108-1.583c0-4.809-.006-9.618.009-14.428,0-.6-.131-1.245.342-1.748A2.719,2.719,0,0,1,66.54,86.4a2.193,2.193,0,0,0,.186-.2H48.881c1.16,1.232,1.371,2.3.723,3.585" transform="translate(-39.616 -69.864)" fill="#3b7ac7"/><path d="M68.591,106.867c-.015,4.809-.006,9.618-.009,14.428a6.6,6.6,0,0,1-.108,1.583,2.441,2.441,0,0,1-2.245,1.921,2.473,2.473,0,0,1-2.329-1.973,7.39,7.39,0,0,1-.092-1.585c0-3.749.024-7.5-.013-11.247a3.183,3.183,0,0,0-3.063-3.284,3.15,3.15,0,0,0-3.033,3.2c-.063,1.134-.014,2.272-.023,3.408a8.554,8.554,0,0,1-.041,1.135,2.357,2.357,0,0,1-4.7.008,8.424,8.424,0,0,1-.037-1.135c0-2.234.01-4.469-.008-6.7,0-.522.081-1.086-.342-1.5-.012.023-.021.045-.033.068q.022,4.372.045,8.744A2.782,2.782,0,0,0,55.319,117c1.6-.015,2.688-1.276,2.7-3.128,0-1.212,0-2.423,0-3.635.007-1.94,1.111-3.22,2.724-3.228a2.967,2.967,0,0,1,2.76,3.227c-.11,3.973-.022,7.951-.038,11.927a2.761,2.761,0,0,0,1.716,2.807,2.709,2.709,0,0,0,3.738-2.745c.029-5.679.033-11.358.047-17.037h0c-.012-.022-.021-.044-.032-.066-.473.5-.34,1.151-.342,1.748" transform="translate(-42.565 -85.192)" fill="#3b7ac7"/><path d="M138.161,86.4a2.718,2.718,0,0,0-.556,3.391l.021-.021a4.1,4.1,0,0,1,.883-3.565h-.161a2.248,2.248,0,0,1-.186.2" transform="translate(-111.237 -69.869)" fill="#3b7ac7"/><path d="M139.148,105.1c0-.029-.007-.058-.011-.087l-.021.021c.011.022.02.044.032.066" transform="translate(-112.748 -85.112)" fill="#3b7ac7"/><path d="M48.107,86.2h-.181a4.109,4.109,0,0,1,.882,3.565l.022.02c.649-1.281.437-2.353-.723-3.585" transform="translate(-38.842 -69.864)" fill="#3b7ac7"/><path d="M52.53,105.01c0,.029-.007.058-.011.088.012-.023.022-.045.033-.068l-.022-.02" transform="translate(-42.565 -85.107)" fill="#3b7ac7"/><path d="M55.519,187.1a2.715,2.715,0,1,0,2.712,2.641,2.733,2.733,0,0,0-2.712-2.641" transform="translate(-42.783 -151.638)" fill="#3b7ac7"/><path d="M200.752,85.819a1.3,1.3,0,0,0-.163-.119.751.751,0,0,0,.083.119Z" transform="translate(-162.57 -69.457)" fill="#fefefe"/><path d="M139.174,24.064h0c-.005.025-.014.045-.02.069l.035.026c0-.031-.008-.062-.015-.095" transform="translate(-112.779 -19.503)" fill="#fefefe"/><path d="M90.862,24.137c-.007-.024-.016-.045-.021-.07-.007.034-.011.066-.015.1l.037-.028" transform="translate(-73.61 -19.505)" fill="#fefefe"/><path d="M28.727,86.146H28.8c.012-.013.021-.028.031-.042-.036.014-.073.027-.109.042" transform="translate(-23.282 -69.784)" fill="#fefefe"/></g></g></g></svg>