<svg xmlns="http://www.w3.org/2000/svg" width="50.437" height="52.756" viewBox="0 0 50.437 52.756">
  <g id="pollo" transform="translate(0 0)">
    <g id="Grupo_887061" data-name="Grupo 887061" transform="translate(0 0)">
      <g id="Grupo_887037" data-name="Grupo 887037" transform="translate(40.349 14.178)">
        <path id="Trazado_621413" data-name="Trazado 621413" d="M403.246,137.594c-.656,1.414-.317,3.707-.26,5.049.131,3.1,5.323,2.278,5.193-2.543a7.8,7.8,0,0,0-.493-2.507Z" transform="translate(-402.848 -137.594)" fill="#ff8086" fill-rule="evenodd"/>
      </g>
      <g id="Grupo_887038" data-name="Grupo 887038" transform="translate(41.733 7.868)">
        <path id="Trazado_621414" data-name="Trazado 621414" d="M416.278,84.022l3.454-1.354,4.8-1.878c.527-.157.62-.575.141-.852l-7.36-3.581C418.108,77.321,416.654,83.212,416.278,84.022Z" transform="translate(-416.278 -76.358)" fill="#ffe07d" fill-rule="evenodd"/>
      </g>
      <g id="Grupo_887039" data-name="Grupo 887039" transform="translate(30.819 0)">
        <path id="Trazado_621415" data-name="Trazado 621415" d="M315.615.077a3.1,3.1,0,0,0-2.341,3.71l.009.042a3.024,3.024,0,0,0-.514.072,3.1,3.1,0,0,0-.19,6c.815-1.86,9.623-2.151,9.719-2.037a3.1,3.1,0,0,0-2.47-5.564,2.945,2.945,0,0,0-.493.157l-.009-.042a3.1,3.1,0,0,0-3.71-2.341Z" transform="translate(-310.352 0)" fill="#ff8086" fill-rule="evenodd"/>
      </g>
      <g id="Grupo_887040" data-name="Grupo 887040" transform="translate(8.653 15.714)">
        <path id="Trazado_621416" data-name="Trazado 621416" d="M95.24,154.817a11.03,11.03,0,0,0,3.331,7.688c-.057,1.649-.057,4.658,2.612,5.031-.117,5.133,14.765,6.876,15.92-3.518.839-5.377-1.213-7.538-4.33-8.431-5.124-1.465-13.131.506-15.887-2.726-.761-.891-1.526-.072-1.64,1.851C95.246,154.745,95.243,154.781,95.24,154.817Z" transform="translate(-95.234 -152.502)" fill="#dddaec" fill-rule="evenodd"/>
      </g>
      <g id="Grupo_887041" data-name="Grupo 887041" transform="translate(0 5.828)">
        <path id="Trazado_621417" data-name="Trazado 621417" d="M12.536,73.814c-2.582,3.15-.746,7.523,1.068,8.991a18.834,18.834,0,0,0,2.774,5.8C18.845,97,44.066,98.322,48.9,88.441c2.822-2.666,4.152-6,3.469-11.019-.343-2.537-1.185-4.486-.623-7.465a15.82,15.82,0,0,1,1.246-3.7A29.649,29.649,0,0,1,54.4,63.616a4.63,4.63,0,0,0,.6-1.444,4.178,4.178,0,0,0-.972-3.575c-.1-.114-.2-.226-.3-.331a5.442,5.442,0,0,0-1.965-1.288c-3.593-1.315-6.111.6-7.453,3.656a11.569,11.569,0,0,0-.451,1.213,18.039,18.039,0,0,1-6.4,7.682c3.117.894,5.169,3.054,4.33,8.431-1.155,10.393-16.038,8.651-15.92,3.518C23.19,81.1,23.19,78.1,23.248,76.447a11.031,11.031,0,0,1-3.331-7.688A51.026,51.026,0,0,1,14.7,65.834c-1.775-1.125-2.344-.262-2.524,1.161-.2,1.6-1.1,5.007.361,6.818Z" transform="translate(-11.258 -56.557)" fill="#f9f6f6" fill-rule="evenodd"/>
      </g>
      <g id="Grupo_887042" data-name="Grupo 887042" transform="translate(2.518 37.874)">
        <path id="Trazado_621418" data-name="Trazado 621418" d="M38.294,367.564a11.133,11.133,0,0,0-2.6,6.551,5.157,5.157,0,0,0,7.1,4.772,5.123,5.123,0,0,1-.734-2.654,10.716,10.716,0,0,1,1.164-4.375A14.469,14.469,0,0,1,38.294,367.564Z" transform="translate(-35.691 -367.564)" fill="#ffdfcf" fill-rule="evenodd"/>
      </g>
      <g id="Grupo_887043" data-name="Grupo 887043" transform="translate(8.882 38.629)">
        <path id="Trazado_621419" data-name="Trazado 621419" d="M97.454,382.807a5.154,5.154,0,0,0,8.365,4.032,5.114,5.114,0,0,1-.942-2.97,8.132,8.132,0,0,1,.247-1.854,12.132,12.132,0,0,1,1.489-3.548c-.945-1.938-2.389-3.575-4.008-3.575a3.492,3.492,0,0,0-2.452,1.261,9.3,9.3,0,0,0-1.535,2.278,10.718,10.718,0,0,0-1.164,4.375Z" transform="translate(-97.454 -374.893)" fill="#ffeee6" fill-rule="evenodd"/>
      </g>
      <g id="Grupo_887044" data-name="Grupo 887044" transform="translate(16.305 39.692)">
        <path id="Trazado_621420" data-name="Trazado 621420" d="M169.494,393.117a5.153,5.153,0,1,0,10.306,0,10.057,10.057,0,0,0-.8-3.557,11.8,11.8,0,0,0-.939-1.845c-.909-1.438-2.106-2.513-3.418-2.513s-2.506,1.074-3.415,2.513a12.132,12.132,0,0,0-1.489,3.548A8.135,8.135,0,0,0,169.494,393.117Z" transform="translate(-169.494 -385.203)" fill="#ffdfcf" fill-rule="evenodd"/>
      </g>
      <g id="Grupo_887045" data-name="Grupo 887045" transform="translate(24.874 38.629)">
        <path id="Trazado_621421" data-name="Trazado 621421" d="M253.6,380.313a10.056,10.056,0,0,1,.8,3.557,5.136,5.136,0,0,1-.942,2.97,5.153,5.153,0,0,0,8.365-4.032,11.184,11.184,0,0,0-1.625-5.218,8.173,8.173,0,0,0-1.077-1.435,3.487,3.487,0,0,0-2.452-1.261c-1.616,0-3.06,1.637-4,3.575A11.8,11.8,0,0,1,253.6,380.313Z" transform="translate(-252.66 -374.894)" fill="#ffeee6" fill-rule="evenodd"/>
      </g>
      <g id="Grupo_887046" data-name="Grupo 887046" transform="translate(32.409 37.712)">
        <path id="Trazado_621422" data-name="Trazado 621422" d="M325.782,369.6a11.184,11.184,0,0,1,1.625,5.218,5.123,5.123,0,0,1-.734,2.654,5.155,5.155,0,0,0,7.1-4.772,11.054,11.054,0,0,0-2.753-6.713,24.145,24.145,0,0,1-4.95,3.442c-.1.054-.193.111-.283.171Z" transform="translate(-325.782 -365.988)" fill="#ffdfcf" fill-rule="evenodd"/>
      </g>
      <g id="Grupo_887047" data-name="Grupo 887047" transform="translate(15.886 18.481)">
        <path id="Trazado_621423" data-name="Trazado 621423" d="M176.129,186.57c-.692,6.235-6.322,8.1-10.694,7.489,3.62,2.925,13.694,2.522,14.635-5.955.839-5.377-1.213-7.538-4.33-8.431a13.75,13.75,0,0,0-1.447-.319,5.2,5.2,0,0,1,.743.734C176.132,181.421,176.616,183.458,176.129,186.57Z" transform="translate(-165.435 -179.354)" fill="#d0cee7" fill-rule="evenodd"/>
      </g>
      <g id="Grupo_887048" data-name="Grupo 887048" transform="translate(41.733 10.862)">
        <path id="Trazado_621424" data-name="Trazado 621424" d="M423.466,105.413,419,107.164l-.033.012-1.459.572c-.484.839-.891,1.613-1.225,2.335l3.454-1.354,4.8-1.878c.527-.157.62-.575.141-.852Z" transform="translate(-416.278 -105.413)" fill="#ffd064" fill-rule="evenodd"/>
      </g>
      <g id="Grupo_887049" data-name="Grupo 887049" transform="translate(42.29 14.178)">
        <path id="Trazado_621425" data-name="Trazado 621425" d="M421.68,144.151c1.652.545,3.481-.635,3.391-4.05a7.8,7.8,0,0,0-.493-2.507l-1.607.629a7.53,7.53,0,0,1,.322,2C423.353,142.387,422.634,143.654,421.68,144.151Z" transform="translate(-421.68 -137.594)" fill="#e5646e" fill-rule="evenodd"/>
      </g>
      <g id="Grupo_887050" data-name="Grupo 887050" transform="translate(41.348 2.256)">
        <path id="Trazado_621426" data-name="Trazado 621426" d="M413.4,23.387a3.092,3.092,0,0,1-.864,2.91,5.545,5.545,0,0,1,1.116.879c.105.105.2.217.3.331a3.1,3.1,0,0,0-1.366-5.612A3.086,3.086,0,0,1,413.4,23.387Z" transform="translate(-412.54 -21.894)" fill="#e5646e" fill-rule="evenodd"/>
      </g>
      <g id="Grupo_887051" data-name="Grupo 887051" transform="translate(20.183 39.692)">
        <path id="Trazado_621427" data-name="Trazado 621427" d="M209.335,387.7a11.667,11.667,0,0,1,.939,1.845,12.016,12.016,0,0,1,.49,1.468,8.408,8.408,0,0,1,.307,2.088,5.593,5.593,0,0,1-.057.782,5.168,5.168,0,0,1-3.879,4.228,5.21,5.21,0,0,0,1.273.157,5.15,5.15,0,0,0,5.154-5.152,10.058,10.058,0,0,0-.8-3.557,11.8,11.8,0,0,0-.939-1.845c-.909-1.438-2.106-2.513-3.418-2.513a2.688,2.688,0,0,0-1.231.313,5.982,5.982,0,0,1,2.109,2.109c.015.024.033.048.048.075Z" transform="translate(-207.136 -385.204)" fill="#fbc7b8" fill-rule="evenodd"/>
      </g>
      <g id="Grupo_887052" data-name="Grupo 887052" transform="translate(27.239 38.629)">
        <path id="Trazado_621428" data-name="Trazado 621428" d="M279.111,385.916a7.346,7.346,0,0,1-3.174,1.878,5.154,5.154,0,0,0,6.469-4.986,11.184,11.184,0,0,0-1.625-5.218,8.54,8.54,0,0,0-.948-1.3c-.042-.045-.084-.09-.129-.135a3.487,3.487,0,0,0-2.452-1.261,2.9,2.9,0,0,0-1.64.56C279.6,377.3,281.188,382.979,279.111,385.916Z" transform="translate(-275.612 -374.894)" fill="#ffdfcf" fill-rule="evenodd"/>
      </g>
      <g id="Grupo_887053" data-name="Grupo 887053" transform="translate(11.848 38.629)">
        <path id="Trazado_621429" data-name="Trazado 621429" d="M128.432,374.894a3.232,3.232,0,0,0-2.133.951c.147-.03-.43-.042.454-.042a3.746,3.746,0,0,1,3.135,2.44c.135.355-.009.629-.256,1.134a8.164,8.164,0,0,0,.322,8.356,5.126,5.126,0,0,0,1.691-.894,5.114,5.114,0,0,1-.942-2.97,8.132,8.132,0,0,1,.247-1.854,12.133,12.133,0,0,1,1.489-3.548C131.495,376.531,130.05,374.894,128.432,374.894Z" transform="translate(-126.247 -374.894)" fill="#ffdfcf" fill-rule="evenodd"/>
      </g>
      <g id="Grupo_887054" data-name="Grupo 887054" transform="translate(38.334 9.506)">
        <path id="Trazado_621430" data-name="Trazado 621430" d="M384.088,94.381a.8.8,0,0,1-.8-.8v-.533a.8.8,0,1,1,1.592,0v.533A.8.8,0,0,1,384.088,94.381Z" transform="translate(-383.292 -92.256)" fill="#2b4d66"/>
      </g>
      <g id="Grupo_887055" data-name="Grupo 887055" transform="translate(11.194 23.91)">
        <path id="Trazado_621431" data-name="Trazado 621431" d="M122.5,234.746a18.375,18.375,0,0,1-1.891-.1.8.8,0,0,1,.164-1.584,11.662,11.662,0,0,0,6.514-.913.8.8,0,0,1,.78,1.388A11.624,11.624,0,0,1,122.5,234.746Z" transform="translate(-119.892 -232.048)" fill="#d0cee7"/>
      </g>
      <g id="Grupo_887056" data-name="Grupo 887056" transform="translate(13.806 28.677)">
        <path id="Trazado_621432" data-name="Trazado 621432" d="M146.036,281.173a.8.8,0,0,1,0-1.592,7.74,7.74,0,0,0,4.275-1.108.8.8,0,0,1,.977,1.257A9.21,9.21,0,0,1,146.036,281.173Z" transform="translate(-145.24 -278.305)" fill="#d0cee7"/>
      </g>
      <g id="Grupo_887057" data-name="Grupo 887057" transform="translate(0.482 22.288)">
        <path id="Trazado_621433" data-name="Trazado 621433" d="M20.672,221.1a.793.793,0,0,1-.4-.106,13.494,13.494,0,0,1-4.162-3.383.8.8,0,0,1,1.235-1.005,11.933,11.933,0,0,0,3.721,3.008.8.8,0,0,1-.4,1.486Z" transform="translate(-15.935 -216.307)" fill="#d0cee7"/>
      </g>
      <g id="Grupo_887058" data-name="Grupo 887058" transform="translate(1.55 31.279)">
        <path id="Trazado_621434" data-name="Trazado 621434" d="M33.34,308.351a.8.8,0,0,1-.3-.059,34.039,34.039,0,0,1-6.377-3.266.8.8,0,0,1,.869-1.334,32.628,32.628,0,0,0,6.11,3.126.8.8,0,0,1-.3,1.534Z" transform="translate(-26.301 -303.563)" fill="#d0cee7"/>
      </g>
      <g id="Grupo_887059" data-name="Grupo 887059" transform="translate(3.852 37.874)">
        <path id="Trazado_621435" data-name="Trazado 621435" d="M53.669,376.234a10.465,10.465,0,0,1,1.014-4.056c.048-.108.1-.214.15-.319a14.737,14.737,0,0,1-1.658-1.032,14.42,14.42,0,0,1-3.268-3.262,9.064,9.064,0,0,0-1.267,1.839,24.857,24.857,0,0,0,2.6,2.913c1.056.8.761.2.569,1.489-.235,1.562-.451,3.68.65,5.461a6.108,6.108,0,0,0,1.944-.379A5.124,5.124,0,0,1,53.669,376.234Z" transform="translate(-48.639 -367.565)" fill="#fbc7b8" fill-rule="evenodd"/>
      </g>
      <g id="Grupo_887060" data-name="Grupo 887060" transform="translate(32.409 37.711)">
        <path id="Trazado_621436" data-name="Trazado 621436" d="M332.45,368.021a8.874,8.874,0,0,0-1.435-2.034,24.142,24.142,0,0,1-4.95,3.442c-.1.054-.193.111-.283.172.171.283.331.578.478.879.162.334.31.68.442,1.026.9-.048,2.762-1.243,3.6-1.82.129-.087.19-.274.334.09a10.03,10.03,0,0,1,.758,3.457,5.154,5.154,0,0,1-2.864,4.619h.081a5.151,5.151,0,0,0,5.151-5.151A10.9,10.9,0,0,0,332.45,368.021Z" transform="translate(-325.782 -365.987)" fill="#fbc7b8" fill-rule="evenodd"/>
      </g>
    </g>
    <g id="Grupo_887062" data-name="Grupo 887062" transform="translate(31.461 5.827)">
      <path id="Trazado_621437" data-name="Trazado 621437" d="M325.119,63.61c-.5.84-.915,1.619-1.264,2.344-.048.1-.1.2-.144.3a15.65,15.65,0,0,0-1.243,3.7c-.566,2.979.277,4.929.623,7.465.584,4.309-.313,7.375-2.365,9.843a13.984,13.984,0,0,1-1.107,1.177,20.358,20.358,0,0,1-3.036,2.314,8.55,8.55,0,0,1,.948,1.3c.09-.06.184-.117.283-.172a24.144,24.144,0,0,0,4.95-3.442c2.822-2.666,4.152-6,3.469-11.019-.343-2.537-1.185-4.486-.623-7.465a15.823,15.823,0,0,1,1.246-3.7,29.647,29.647,0,0,1,1.408-2.645,4.629,4.629,0,0,0,.6-1.444,4.178,4.178,0,0,0-.972-3.575c-.1-.114-.2-.226-.3-.331a5.442,5.442,0,0,0-1.965-1.288,5.594,5.594,0,0,0-3.719-.187c.187.054.379.114.575.187C325.18,57.962,326.75,60.968,325.119,63.61Z" transform="translate(-316.583 -56.55)" fill="#dddaec" fill-rule="evenodd"/>
    </g>
  </g>
</svg>
