<svg xmlns="http://www.w3.org/2000/svg" width="73.8" height="52.757" viewBox="0 0 73.8 52.757">
  <g id="cerdo" transform="translate(0 0)">
    <g id="Grupo_887064" data-name="Grupo 887064" transform="translate(0 0)">
      <path id="Trazado_621451" data-name="Trazado 621451" d="M153.249,328.494l10.538,2.827-2.049,4.991-3.172,6.51a.625.625,0,0,1-.562.351H153.34a.625.625,0,0,1-.624-.593l-.438-8.617Z" transform="translate(-112.516 -290.416)" fill="#fe99a0"/>
      <path id="Trazado_621452" data-name="Trazado 621452" d="M315.393,321.32l.926-3.168c0-.086,1.281-2.918,1.281-2.918l8.232,2.608-.921,4.057-.121,3.859,2.258,5.36a.543.543,0,0,1-.5.756h-4.39a1.084,1.084,0,0,1-.879-.45l-5.436-7.514A2.989,2.989,0,0,1,315.393,321.32Z" transform="translate(-299.935 -279.118)" fill="#fe99a0"/>
      <path id="Trazado_621453" data-name="Trazado 621453" d="M55.642,128.084v-1.32a1.812,1.812,0,0,1,1.812-1.812h6.091a.683.683,0,0,1,.683.683v2.092a4.438,4.438,0,0,1-4.438,4.438l-2.8.851L55.2,130.81Z" transform="translate(1.405 -116.987)" fill="#fe99a0"/>
      <path id="Trazado_621454" data-name="Trazado 621454" d="M436.78,86.22a1.105,1.105,0,0,0,.751-.293l3.4-3.13a3.324,3.324,0,1,0-4.582-4.814l-.133.133a1.076,1.076,0,0,1-1.522-1.522l1.757-1.757a2.4,2.4,0,0,0,0-3.39,1.11,1.11,0,1,0-1.569,1.569.178.178,0,0,1,0,.252l-1.757,1.757a3.3,3.3,0,0,0,4.66,4.66l.133-.133a1.105,1.105,0,0,1,1.886.811,1.1,1.1,0,0,1-.366.792l-3.41,3.139a1.11,1.11,0,0,0,.752,1.926Z" transform="translate(-432.16 -71.121)" fill="#fe99a0"/>
    </g>
    <path id="Trazado_621455" data-name="Trazado 621455" d="M.546,154.952a2.791,2.791,0,0,0,.277,2.592L5.8,164.937a.5.5,0,0,0,.414.22h5.973a.5.5,0,0,0,.466-.675L9.23,155.414a.554.554,0,0,1,.222-.664L14.9,151.3a.7.7,0,0,1,.69-.032l.331.169,2.907,1.488a32.268,32.268,0,0,0,26.188,1.43,1.392,1.392,0,0,1,1.554.392l1.822,2.125a.847.847,0,0,1,.194.413l.172,1.013,1.067,6.3a.677.677,0,0,0,.667.564h5.326a.678.678,0,0,0,.676-.719L55.8,153.145a.845.845,0,0,1,.719-.887l11.12-1.646h4.319a1.373,1.373,0,0,0,1.373-1.373v-5.326a1.373,1.373,0,0,0-1.373-1.373H68.813l-4.182-8.8A24.829,24.829,0,0,0,42.2,119.568H12.971a7.726,7.726,0,0,0-5.163,1.978L1.815,126.93A5.472,5.472,0,0,0,0,131V141.66A10.883,10.883,0,0,0,2.67,148.8a.547.547,0,0,1,.1.562Z" transform="translate(0.469 -112.4)" fill="#ffc4c8"/>
    <path id="Trazado_621456" data-name="Trazado 621456" d="M62.171,146.063a5.709,5.709,0,0,1-5.156-3.258l-2.634-5.542a24.829,24.829,0,0,0-22.427-14.172H2.72a7.723,7.723,0,0,0-2.72.5l2.271-2.04a7.726,7.726,0,0,1,5.163-1.978H36.667A24.832,24.832,0,0,1,59.094,133.74l4.182,8.8h3.145a1.373,1.373,0,0,1,1.373,1.373v2.15Z" transform="translate(6.005 -112.4)" fill="#fdb4ba"/>
    <path id="Trazado_621457" data-name="Trazado 621457" d="M25.258,269.07V272.8a1.11,1.11,0,0,1-2.219,0v-3.734a1.109,1.109,0,0,1,.633-1l.476,1Z" transform="translate(45.134 -238.93)" fill="#fe99a0"/>
    <path id="Trazado_621458" data-name="Trazado 621458" d="M409.951,397.958l2.812,4.181a.5.5,0,0,0,.414.22h5.973a.5.5,0,0,0,.466-.675l-1.4-3.727Z" transform="translate(-406.499 -349.602)" fill="#918291"/>
    <path id="Trazado_621459" data-name="Trazado 621459" d="M315.273,398.008l2.821,3.9a1.085,1.085,0,0,0,.879.45h4.39a.543.543,0,0,0,.5-.756l-1.536-3.646Z" transform="translate(-296.752 -349.602)" fill="#918291"/>
    <path id="Trazado_621460" data-name="Trazado 621460" d="M174.6,397.96l.194,3.807a.625.625,0,0,0,.624.593h4.663a.625.625,0,0,0,.562-.351l1.919-3.937-7.931-.114Z" transform="translate(-134.594 -349.602)" fill="#918291"/>
    <path id="Trazado_621461" data-name="Trazado 621461" d="M113.831,396.6l.684,4.033a.677.677,0,0,0,.667.564h5.326a.678.678,0,0,0,.676-.719l-.237-3.885h-7.076Z" transform="translate(-64.226 -348.435)" fill="#918291"/>
    <path id="Trazado_621462" data-name="Trazado 621462" d="M154.96,163.48v3.586a1.815,1.815,0,0,0,1.815,1.815h2.334a4.438,4.438,0,0,0,4.438-4.439v-2.091a.683.683,0,0,0-.684-.684h-6.091A1.812,1.812,0,0,0,154.96,163.48Z" transform="translate(-112.672 -148.271)" fill="#fe99a0"/>
    <path id="Trazado_621463" data-name="Trazado 621463" d="M89.816,248.509a1.11,1.11,0,0,0,1.11-1.11v-2.3a1.11,1.11,0,0,0-2.219,0v2.3A1.11,1.11,0,0,0,89.816,248.509Z" transform="translate(-30.249 -218.416)" fill="#918291"/>
  </g>
</svg>
