<svg xmlns="http://www.w3.org/2000/svg" width="68.94" height="52.756" viewBox="0 0 68.94 52.756">
  <g id="caballo" transform="translate(0 -60.097)">
    <path id="Trazado_621438" data-name="Trazado 621438" d="M303.176,77.7a38.441,38.441,0,0,1,17.369-9.273,6.245,6.245,0,0,1,1.2-4.025h0s-14.179.351-19.815,13.923A9.25,9.25,0,0,0,303.176,77.7Z" transform="translate(-261.278 -3.724)" fill="#868b9b"/>
    <path id="Trazado_621439" data-name="Trazado 621439" d="M321.554,64.662c.064-.093.129-.182.195-.261h0s-14.179.351-19.815,13.923a9.242,9.242,0,0,0,1.243-.624q.946-.9,1.968-1.733C309.7,67.687,317.661,65.329,321.554,64.662Z" transform="translate(-261.278 -3.724)" fill="#707487"/>
    <path id="Trazado_621440" data-name="Trazado 621440" d="M48.042,293.6a.946.946,0,0,1-.554-.964l.7-6.412a4.371,4.371,0,0,1,1.014-2.356l.221-.261c.235-.665.566-1.513,1.033-2.578.921-2.1-1.413-4.228-3.241-7.121.75,2.323,1.406,4.246.232,5.569a25.9,25.9,0,0,0-2.735,3.509,1.665,1.665,0,0,0-.229.673l-1.286,11.107a1.2,1.2,0,0,0,.83,1.316l5.523,1.759a.71.71,0,0,0,.928-.7A3.874,3.874,0,0,0,48.042,293.6Z" transform="translate(-37.365 -185.018)" fill="#ad7b64"/>
    <path id="Trazado_621441" data-name="Trazado 621441" d="M73.118,273.9c.75,2.323,1.406,4.246.232,5.569l-.2.223c.415.637.833,1.223,1.218,1.761.351.491.808,1.13,1.13,1.662.217-.579.5-1.271.856-2.093C77.28,278.926,74.946,276.8,73.118,273.9Z" transform="translate(-63.273 -185.018)" fill="#966653"/>
    <path id="Trazado_621442" data-name="Trazado 621442" d="M8.424,183.175a8.544,8.544,0,0,1,1.438-2.965c-1.784-.742-5.644-1.7-8.453,1.527-4.161,4.784,2.551,16.094-.743,23.979a.861.861,0,0,0,1.327,1.015C14.91,196.341-.2,183.686,8.424,183.175Z" transform="translate(0 -103.305)" fill="#868b9b"/>
    <path id="Trazado_621443" data-name="Trazado 621443" d="M4.183,181.741a6.3,6.3,0,0,1,3.608-2.132,6.562,6.562,0,0,0-6.383,2.132c-4.161,4.784,2.551,16.094-.743,23.979a.861.861,0,0,0,1.327,1.015,19.046,19.046,0,0,0,1.62-1.457C6.488,197.418.1,186.436,4.183,181.741Z" transform="translate(0 -103.309)" fill="#707487"/>
    <path id="Trazado_621444" data-name="Trazado 621444" d="M350.883,264.737l.376-1.068a14.706,14.706,0,0,0,3.089-6.083,13.517,13.517,0,0,1,.5,1.533s.593,1.721,5.241,4.264c3.82,2.09,4.673,6.928,4.856,8.586a.873.873,0,0,0,.558.709,2.614,2.614,0,0,1,1.459,2.311.668.668,0,0,1-.67.729h-4.205a.929.929,0,0,1-.932-.926v-2.443c-.192-5.785-2.559-5.34-7.292-6.421A10.076,10.076,0,0,1,350.883,264.737Z" transform="translate(-303.637 -170.898)" fill="#ad7b64"/>
    <path id="Trazado_621445" data-name="Trazado 621445" d="M354.845,259.119a13.529,13.529,0,0,0-.5-1.533,14.705,14.705,0,0,1-3.089,6.083l-.376,1.068a10.023,10.023,0,0,0,2.65,1.108l.277-.791a17.01,17.01,0,0,0,2.47-4.23A4.966,4.966,0,0,1,354.845,259.119Z" transform="translate(-303.638 -170.898)" fill="#966653"/>
    <path id="Trazado_621446" data-name="Trazado 621446" d="M119.457,76.729l-2.506-4.367-.479-2.876-1.961-3.13a1.7,1.7,0,0,1-.259-.949,7.139,7.139,0,0,0-1.872-5.113.637.637,0,0,0-.906,0,5.821,5.821,0,0,0-1.689,4.292c-2.417.362-10.677,3.145-17.18,9.358,0,0-3.451,2.229-9.993,2.229s-10.64-2.444-15.241-2.444S58.6,76.675,58.6,83s6.566,9.705,5.128,13.012a25.893,25.893,0,0,0-1.506,4.17,1.675,1.675,0,0,0-.01.71L64.4,111.858a1.2,1.2,0,0,0,1.185,1H71.33a.7.7,0,0,0,.662-.946,3.875,3.875,0,0,0-3.376-2.636.947.947,0,0,1-.818-.75l-1.306-6.315a4.391,4.391,0,0,1,.235-2.55L68.66,94.93c.588-1.438,2.264-2.761,3.247-5.937h0c9.133,5.773,19.863,2.3,19.875,2.3.562,2.773,1.492,5.85,1.492,5.85v14.713a1.007,1.007,0,0,0,1.006,1.007h6.405a.527.527,0,0,0,.511-.658c-.418-1.608-2.352-2.169-3.472-2.36a.978.978,0,0,1-.808-.966V97.092l1.51-4.313a15.991,15.991,0,0,0,3.523-11.215,17.652,17.652,0,0,1,6.611-7.824.769.769,0,0,1,1.1.288c.481.921.743,1.641,1.746,2.073a16.543,16.543,0,0,1,4.731,3.086,1.512,1.512,0,0,0,1.915.142l.98-.693A1.451,1.451,0,0,0,119.457,76.729Z" transform="translate(-50.709 -0.007)" fill="#bc8c79"/>
    <g id="Grupo_887063" data-name="Grupo 887063" transform="translate(7.891 60.097)">
      <path id="Trazado_621447" data-name="Trazado 621447" d="M248.268,76.165c6.542,0,9.993-2.229,9.993-2.229a39.3,39.3,0,0,1,16.592-9.246.771.771,0,0,0,.6-.705,5.731,5.731,0,0,1,.8-2.56,6.169,6.169,0,0,0-.876-1.138.634.634,0,0,0-.9,0,5.821,5.821,0,0,0-1.69,4.292c-2.417.362-10.677,3.145-17.18,9.358,0,0-2.978,1.921-8.641,2.2C247.387,76.153,247.821,76.165,248.268,76.165Z" transform="translate(-221.6 -60.097)" fill="#ad7b64"/>
      <path id="Trazado_621448" data-name="Trazado 621448" d="M67.056,199.408,64.87,188.444a1.675,1.675,0,0,1,.01-.71,25.864,25.864,0,0,1,1.506-4.17c1.438-3.307-5.128-6.686-5.128-13.012,0-5.75,3.445-8.708,7.528-9.2-.468-.047-.939-.074-1.415-.074-4.6,0-8.771,2.947-8.771,9.274s6.566,9.705,5.128,13.012a25.892,25.892,0,0,0-1.506,4.17,1.675,1.675,0,0,0-.01.71L64.4,199.408a1.2,1.2,0,0,0,1.185,1h2.658A1.2,1.2,0,0,1,67.056,199.408Z" transform="translate(-58.601 -147.654)" fill="#ad7b64"/>
      <path id="Trazado_621449" data-name="Trazado 621449" d="M158.635,230.412a1.04,1.04,0,0,0-1.943.744,8.224,8.224,0,0,1,.1,4.394c-.02.081-.037.163-.054.244a20.277,20.277,0,0,0,1.936,1.079,6.314,6.314,0,0,1,.14-.835A10.158,10.158,0,0,0,158.635,230.412Z" transform="translate(-143.426 -206.905)" fill="#ad7b64"/>
      <path id="Trazado_621450" data-name="Trazado 621450" d="M286.6,259.933a1.04,1.04,0,1,0-2.042.4l.718,3.644a19.494,19.494,0,0,0,2.023-.494Z" transform="translate(-254.112 -232.299)" fill="#ad7b64"/>
    </g>
    <circle id="Elipse_6637" data-name="Elipse 6637" cx="0.948" cy="0.948" r="0.948" transform="translate(62.875 70.339)" fill="#966653"/>
  </g>
</svg>
