<svg xmlns="http://www.w3.org/2000/svg" width="52.767" height="52.756" viewBox="0 0 52.767 52.756">
  <g id="Artboard_20" data-name="Artboard 20" transform="translate(-2 -1.992)">
    <path id="Trazado_627982" data-name="Trazado 627982" d="M7.846,7.9l-1.5-2.066A1.82,1.82,0,0,1,6,4.778V4.426A1.758,1.758,0,0,1,7.758,2.668H8.4a1.706,1.706,0,0,0,.554-.1l1.371-.466a2.084,2.084,0,0,1,1.829.255,1.758,1.758,0,0,0,2.207.22A1.758,1.758,0,0,1,16.8,3.24l.123.193a1.758,1.758,0,0,0,1.881.738L19.469,4A1.758,1.758,0,0,1,21.6,5.3l.193.782a1.758,1.758,0,0,1-.607,1.82L18.721,9.912Z" transform="translate(-0.483 -0.001)" fill="#953528"/>
    <path id="Trazado_627983" data-name="Trazado 627983" d="M2,61.123a8.4,8.4,0,0,1,7.033-5.275L47.716,54.74a12.546,12.546,0,0,1,3.517,1.987,12.686,12.686,0,0,1,3.517,4.4Z" transform="translate(0 -6.374)" fill="#ffb127"/>
    <path id="Trazado_627984" data-name="Trazado 627984" d="M12.826,48A6.453,6.453,0,0,0,9.67,53.275c0,3.886,4.194,7.033,9.372,7.033a11.745,11.745,0,0,0,4.985-1.073V49.328Z" transform="translate(-0.927 -5.56)" fill="#f2b9a1"/>
    <path id="Trazado_627985" data-name="Trazado 627985" d="M47.818,47.31c2.55,1.257,4.229,3.42,4.229,5.882,0,3.886-4.2,7.033-9.381,7.033a11.807,11.807,0,0,1-4.827-1V49.851Z" transform="translate(-4.331 -5.477)" fill="#f2b9a1"/>
    <path id="Trazado_627986" data-name="Trazado 627986" d="M39.946,52.318a4.668,4.668,0,0,1,.4,1.864c0,3.64-4.325,6.594-9.671,6.594S21,57.822,21,54.182a4.879,4.879,0,0,1,.607-2.312Z" transform="translate(-2.296 -6.028)" fill="#f4c8ad"/>
    <g id="Grupo_891679" data-name="Grupo 891679" transform="translate(8.743 43.495)">
      <path id="Trazado_627987" data-name="Trazado 627987" d="M23.92,56.242a5.178,5.178,0,0,0,1.547,3.569,12.888,12.888,0,0,0,5.556,1.222c5.345,0,9.671-2.954,9.671-6.594a.36.36,0,0,0,0-.1L26.338,54a2.321,2.321,0,0,0-2.418,2.242Z" transform="translate(-11.392 -49.78)" fill="#fbdac2"/>
      <path id="Trazado_627988" data-name="Trazado 627988" d="M43.144,60.453c5.178,0,9.381-3.147,9.381-7.033a5.969,5.969,0,0,0-1.881-4.22,10.066,10.066,0,0,1-5.152,4.765,2.057,2.057,0,0,0-1.284,1.512,11.9,11.9,0,0,1-2.418,4.9,7.432,7.432,0,0,0,1.354.079Z" transform="translate(-13.552 -49.2)" fill="#fbdac2"/>
      <path id="Trazado_627989" data-name="Trazado 627989" d="M18.04,55.4a1.688,1.688,0,0,0-1.213-1.389,23.2,23.2,0,0,1-6.154-3.622,5.662,5.662,0,0,0-1,3.174c0,3.886,4.194,7.033,9.372,7.033a12.562,12.562,0,0,0,1.934-.167A7.429,7.429,0,0,1,18.04,55.4Z" transform="translate(-9.67 -49.344)" fill="#fbdac2"/>
    </g>
    <ellipse id="Elipse_6640" data-name="Elipse 6640" cx="3.314" cy="1.275" rx="3.314" ry="1.275" transform="translate(25.57 51.539)" fill="#fef8f3"/>
    <ellipse id="Elipse_6641" data-name="Elipse 6641" cx="2.646" cy="1.02" rx="2.646" ry="1.02" transform="translate(43.034 51.569) rotate(-56.58)" fill="#fef8f3"/>
    <ellipse id="Elipse_6642" data-name="Elipse 6642" cx="1.02" cy="2.646" rx="1.02" ry="2.646" transform="matrix(0.766, -0.643, 0.643, 0.766, 9.194, 48.625)" fill="#fef8f3"/>
    <path id="Trazado_627990" data-name="Trazado 627990" d="M7.5,56.35A8.4,8.4,0,0,0,4.637,57.8,8.493,8.493,0,0,0,2,61.317H12.55C8.708,60.016,7.741,57.537,7.5,56.35Z" transform="translate(0 -6.569)" fill="#ffc239"/>
    <path id="Trazado_627991" data-name="Trazado 627991" d="M60.66,61.275a12.686,12.686,0,0,0-3.517-4.4A11.982,11.982,0,0,0,55.886,56a10.682,10.682,0,0,1-4.976,5.275Z" transform="translate(-5.911 -6.527)" fill="#ffc239"/>
    <path id="Trazado_627992" data-name="Trazado 627992" d="M6.55,11.634l.4,4.035c.642-.237,1.635-1.266,3.517-.44C13.1,16.4,13.768,19.511,13.979,20.5c.448,2.172-.053,3.587-.879,7.033-1.354,5.679-1.7,6.479-1.758,8.835-.062,2.145-.114,4.334.879,6.154,1.117,2.057,4.22,3.648,13.187,4.4,8.387.721,16.809.431,18.462-3.956.721-1.917-1.046-3.464,0-7.033a10.093,10.093,0,0,1,2.637-4.4c2.5-2.4,3.842-2.743,5.275-2.725a1.407,1.407,0,0,0,1.38-1.073l.378-1.609a.633.633,0,0,0-.642-.791c-1.943.062-5.873.387-7.253,1.758,0,0-.879-4.4,9.671-4.4V20.469a1.758,1.758,0,0,0-1.354-1.7,21.662,21.662,0,0,0-4.818-.466c-3,0-4.4,0-10.55,3.517-5.4,3.086-6.6,4.044-7.912,4.4-1,.273-6.471,1.758-8.792-.879a4.3,4.3,0,0,1-.879-1.758c-1.758-5.882-.237-8.792-1.758-12.308C18.1,8.636,15.289,5.787,12.221,6l-.484.062A6.418,6.418,0,0,0,6.55,11.634Z" transform="translate(-0.55 -0.483)" fill="#d5d6d8"/>
    <path id="Trazado_627993" data-name="Trazado 627993" d="M6.55,11.634l.4,4.035c.642-.237,1.635-1.266,3.517-.44C13.1,16.4,13.768,19.511,13.979,20.5c.448,2.172-.053,3.587-.879,7.033-1.354,5.679-1.7,6.479-1.758,8.835-.062,2.145-.114,4.334.879,6.154,1.117,2.057,4.22,3.648,13.187,4.4,8.387.721,16.809.431,18.462-3.956.721-1.917-1.046-3.464,0-7.033a10.093,10.093,0,0,1,2.637-4.4c2.5-2.4,3.842-2.743,5.275-2.725a1.407,1.407,0,0,0,1.38-1.073l.378-1.609a.633.633,0,0,0-.642-.791c-1.943.062-5.873.387-7.253,1.758,0,0-.879-4.4,9.671-4.4V20.469a1.758,1.758,0,0,0-1.354-1.7,21.662,21.662,0,0,0-4.818-.466c-3,0-4.4,0-10.55,3.517-5.4,3.086-6.6,4.044-7.912,4.4-1,.273-6.471,1.758-8.792-.879a4.3,4.3,0,0,1-.879-1.758c-1.758-5.882-.237-8.792-1.758-12.308C18.1,8.636,15.289,5.787,12.221,6l-.484.062A6.418,6.418,0,0,0,6.55,11.634Z" transform="translate(-0.55 -0.483)" fill="#d5d6d8"/>
    <path id="Trazado_627994" data-name="Trazado 627994" d="M53.945,18.773a21.662,21.662,0,0,0-4.8-.466c-3,0-4.4,0-10.55,3.517-5.4,3.086-6.6,4.044-7.912,4.4-1,.273-6.471,1.758-8.792-.879a4.3,4.3,0,0,1-.879-1.758c-1.758-5.882-.237-8.792-1.758-12.308C18.1,8.636,15.289,5.787,12.221,6l-.484.062A6.418,6.418,0,0,0,6.55,11.625l.4,4.044c.642-.237,1.635-1.266,3.517-.44C13.1,16.4,13.768,19.511,13.979,20.5c.448,2.172-.053,3.587-.879,7.033-.088.378-.176.721-.255,1.055,1.943,6.98,8.686,15.719,30.973,11.833A8.255,8.255,0,0,1,43.87,36a10.093,10.093,0,0,1,2.637-4.4c2.5-2.4,3.842-2.743,5.275-2.725a1.407,1.407,0,0,0,1.38-1.073l.378-1.679a.633.633,0,0,0-.642-.791c-1.943.062-5.873.387-7.253,1.758,0,0-.879-4.4,9.671-4.4V20.469a1.758,1.758,0,0,0-1.371-1.7Z" transform="translate(-0.55 -0.483)" fill="#f1f1f3"/>
    <path id="Trazado_627995" data-name="Trazado 627995" d="M11,10.01h1.758v1.758H11Z" transform="translate(-1.088 -0.969)" fill="#393a3a"/>
    <path id="Trazado_627996" data-name="Trazado 627996" d="M6.044,12.07C4.488,13.345,2,15.762,2,18.163L6.4,16.4Z" transform="translate(0 -1.218)" fill="#ffb127"/>
    <path id="Trazado_627997" data-name="Trazado 627997" d="M32.826,47.415A14.128,14.128,0,0,1,22.8,43.556a13.372,13.372,0,0,1-3.587-6.6.866.866,0,1,1,1.688-.387,11.684,11.684,0,0,0,3.1,5.741c3.174,3.139,8.29,4.158,13.187,2.7a.877.877,0,1,1,.536,1.67,17.442,17.442,0,0,1-4.906.738Z" transform="translate(-2.078 -4.096)" fill="#9a9b9f"/>
    <ellipse id="Elipse_6643" data-name="Elipse 6643" cx="4.607" cy="1.776" rx="4.607" ry="1.776" transform="translate(38.384 22.206) rotate(-26.693)" fill="#fff"/>
    <ellipse id="Elipse_6644" data-name="Elipse 6644" cx="3.605" cy="1.389" rx="3.605" ry="1.389" transform="translate(39.574 30.801) rotate(-35.598)" fill="#fff"/>
    <ellipse id="Elipse_6645" data-name="Elipse 6645" cx="1.389" cy="3.605" rx="1.389" ry="3.605" transform="translate(11.165 7.729) rotate(-50.561)" fill="#fff"/>
    <path id="Trazado_627998" data-name="Trazado 627998" d="M2.1,17.444l2.312-1.266a2.04,2.04,0,0,0,1.055-1.873V12.67C4.113,13.839,2.5,15.6,2.1,17.444Z" transform="translate(-0.012 -1.29)" fill="#ffc239"/>
    <path id="Trazado_627999" data-name="Trazado 627999" d="M21.4,7.881a1.758,1.758,0,0,0,.607-1.82l-.193-.782a1.758,1.758,0,0,0-2.128-1.292l-.668.167a1.758,1.758,0,0,1-1.881-.738l-.123-.193a1.758,1.758,0,0,0-2.435-.659,1.758,1.758,0,0,1-2.189-.2,2.084,2.084,0,0,0-1.8-.273l-1.371.466a1.706,1.706,0,0,1-.554.1h-.7L8.3,3.6a1.811,1.811,0,0,0,2.172,1.152c2.172-.58,6.207-.738,9.3,4.475Z" transform="translate(-0.72)" fill="#c64635"/>
    <ellipse id="Elipse_6646" data-name="Elipse 6646" cx="0.571" cy="1.477" rx="0.571" ry="1.477" transform="translate(18.197 5.128) rotate(-50.561)" fill="#f4dad7"/>
  </g>
</svg>
