<svg xmlns="http://www.w3.org/2000/svg" width="87.465" height="52.756" viewBox="0 0 87.465 52.756">
  <g id="pig" transform="translate(0)">
    <path id="Trazado_628030" data-name="Trazado 628030" d="M450.914,114.319a1.392,1.392,0,0,0,.576-2.659,20.574,20.574,0,0,1-4-2.429c.047-.053.093-.107.139-.161a5.377,5.377,0,0,0,1.216-4.7,3.712,3.712,0,0,0-2.457-2.558,3.674,3.674,0,0,0-3.835.823,3.855,3.855,0,0,0-.844,4.069,7.814,7.814,0,0,0,1.695,2.564,22.857,22.857,0,0,1-2.676,1.835,1.392,1.392,0,0,0,1.353,2.434,25.364,25.364,0,0,0,3.386-2.36,23.572,23.572,0,0,0,4.875,3.02A1.384,1.384,0,0,0,450.914,114.319Zm-5.807-9.945a1.073,1.073,0,0,1,.358.063.933.933,0,0,1,.691.662,2.7,2.7,0,0,1-.655,2.171c-.026.031-.052.062-.079.092a5.111,5.111,0,0,1-1.078-1.553,1.129,1.129,0,0,1,.164-1.2A.84.84,0,0,1,445.107,104.375Z" transform="translate(-440.009 -101.589)" fill="#e6646e"/>
    <path id="Trazado_628031" data-name="Trazado 628031" d="M4.251,154.009c-2.96-3.593-6.8-11.058-1.917-18.558,12.762-19.607,50.641-8.5,62.707-5.1,1.693.476,5.291,1.682,7.348,2.38a3.578,3.578,0,0,1,2.027,1.871c1.82,3.7,6.831,6.349,9.016,7.361a1.387,1.387,0,0,1,.756,1.6L83.3,147.1a1.382,1.382,0,0,1-1.145,1.04c-.394.056-.907.109-1.467.145-.759,4.729-19.623,7.094-19.623,7.094l-3.394,11.515,1.341,4.738a1.109,1.109,0,0,1-1.067,1.411H54.84a1.109,1.109,0,0,1-1.1-.99l-1.12-10.425a20.494,20.494,0,0,1,.03-4.463c-9.4,2.629-28.828,3.112-39.682.472l-3.092,2.935-1.044,7.1,2.511,3.635a1.109,1.109,0,0,1-.912,1.739H7.457a1.109,1.109,0,0,1-1.064-.8L2.714,159.634a4.178,4.178,0,0,1,.219-2.924Z" transform="translate(3.235 -120.284)" fill="#ffaab4"/>
    <path id="Trazado_628032" data-name="Trazado 628032" d="M84.747,135.318a11.537,11.537,0,0,1,.9,8.2.786.786,0,0,1-1.079.484l-5.435-2.446a.8.8,0,0,1-.374-1.1,13.7,13.7,0,0,1,4.883-5.5A.789.789,0,0,1,84.747,135.318Z" transform="translate(-12.005 -129.173)" fill="#ff96a0"/>
    <path id="Trazado_628033" data-name="Trazado 628033" d="M60.618,213.531a1.392,1.392,0,0,0,.013-2.785h-.014a1.392,1.392,0,1,0,0,2.785Z" transform="translate(15.329 -192.099)" fill="#4b3f4e"/>
    <path id="Trazado_628034" data-name="Trazado 628034" d="M22.666,258.477a17.486,17.486,0,0,0,4.871,1.107,4.091,4.091,0,0,1-2.235,2.492,17.628,17.628,0,0,1-3.767-1.062,1.33,1.33,0,0,1-.522-2.058l.073-.091A1.347,1.347,0,0,1,22.666,258.477Z" transform="translate(56.388 -231.585)" fill="#ec757f"/>
    <path id="Trazado_628035" data-name="Trazado 628035" d="M2.741,225.729a1.387,1.387,0,0,1,.756,1.6l-.886,3.543a1.382,1.382,0,0,1-1.145,1.04c-.394.056-.907.109-1.467.145l1.591-6.888C2.023,225.388,2.415,225.578,2.741,225.729Z" transform="translate(83.925 -204.055)" fill="#e6646e"/>
    <g id="Grupo_891698" data-name="Grupo 891698" transform="translate(16.202 31.592)">
      <path id="Trazado_628036" data-name="Trazado 628036" d="M183.2,297.206l2-1.737a3.585,3.585,0,0,1,2.783-.837,96.825,96.825,0,0,0,33.366-2.125,1.466,1.466,0,0,1,1.809,1.584l-.277,2.643C213.482,299.363,194.05,299.846,183.2,297.206Z" transform="translate(-183.196 -291.449)" fill="#ff96a0"/>
      <path id="Trazado_628037" data-name="Trazado 628037" d="M62.3,286.522c-5.8,2.332-15.1,3.5-15.1,3.5l.5-1.8a2.273,2.273,0,0,1,2.47-1.653A45.215,45.215,0,0,0,62.3,286.522Z" transform="translate(0.904 -286.522)" fill="#ff96a0"/>
    </g>
    <g id="Grupo_891699" data-name="Grupo 891699" transform="translate(8.918 49.523)">
      <path id="Trazado_628038" data-name="Trazado 628038" d="M430.132,391.487l1.032,1.494a1.109,1.109,0,0,1-.912,1.739H427.28a1.109,1.109,0,0,1-1.064-.8l-.71-2.435Z" transform="translate(-425.505 -391.487)" fill="#aa505a"/>
      <path id="Trazado_628039" data-name="Trazado 628039" d="M151.8,394.72H148.7a1.109,1.109,0,0,1-1.1-.99l-.241-2.243h5l.516,1.822A1.109,1.109,0,0,1,151.8,394.72Z" transform="translate(-99.539 -391.487)" fill="#aa505a"/>
    </g>
  </g>
</svg>
