<svg xmlns="http://www.w3.org/2000/svg" xmlns:xlink="http://www.w3.org/1999/xlink" width="132.278" height="52.756" viewBox="0 0 132.278 52.756"><defs><clipPath id="a"><rect width="46.557" height="52.756" fill="none"/></clipPath></defs><g transform="translate(-179.546 -3686.837)"><rect width="109" height="42" transform="translate(179.546 3697.373)" fill="#a3314f"/><g transform="translate(265.267 3686.837)"><g clip-path="url(#a)"><path d="M92.946,357.585c1.106-.017,1.372.243,1.375,1.338,0,.274-.013.548,0,.821a1.169,1.169,0,0,1-.692,1.25H56.054a1.081,1.081,0,0,1-.661-1.116c.006-.412-.006-.823,0-1.235a1.183,1.183,0,0,1,.78-1.159,3.338,3.338,0,0,1,.772-.04,3.44,3.44,0,0,1,.514-.017q17.268,0,34.536,0a1.524,1.524,0,0,1,.947.157" transform="translate(-47.77 -308.238)" fill="#477b9d"/><path d="M8.388,356.965a1.2,1.2,0,0,0-.622,1.252,2.694,2.694,0,0,1,0,.617,1.633,1.633,0,0,0,.518,1.531H.666c-.992-.706-.59-1.743-.556-2.644.03-.783.793-.755,1.371-.86a.978.978,0,0,1,.682-.163c1.845,0,3.689-.008,5.534,0,.249,0,.562-.086.692.262" transform="translate(0 -307.609)" fill="#3f6d8d"/><path d="M101.225,313.077c-.206,0-.412.01-.617.01l-35.454,0a.493.493,0,0,1-.133-.326c0-1.537-.09-3.075.051-4.61A2.32,2.32,0,0,1,66.7,306l7.267-.01c.324,0,.648-.01.972-.016a.819.819,0,0,1,.581-.153c1.076,0,2.152-.019,3.228.009,1.488-.029,2.975-.009,4.463-.01a.82.82,0,0,1,.581.155q4.366.008,8.732.015c2.089,0,4.178,0,6.267,0A2.264,2.264,0,0,1,101.2,308.4q.017,2.337.027,4.674" transform="translate(-56.048 -263.73)" fill="#3f6d8d"/><path d="M147.175,1.745a12.928,12.928,0,0,1,5.738,2.224,14.133,14.133,0,0,1,6.462,12.04,14.449,14.449,0,0,1-10.931,14.046c-.183.046-.366.087-.55.131a1.071,1.071,0,0,1-.887.238,7.632,7.632,0,0,0-1.779-.628,14.814,14.814,0,0,1-3.834-2.067c-.148-.115-.494-.237-.163-.53.751.064,1.471.3,2.221.386a11.676,11.676,0,0,0,13.021-9.99,11.681,11.681,0,0,0-14.84-12.784.94.94,0,0,1-.6.06c-.127-.337.161-.449.347-.582a13.364,13.364,0,0,1,5.8-2.544" transform="translate(-121.595 -1.505)" fill="#477b9d"/><path d="M80.865.24a13.2,13.2,0,0,1-1.884.6,15.48,15.48,0,0,0-3.988,2.146,2.112,2.112,0,0,0-.305.339c.01.245-.206.244-.349.3a11.371,11.371,0,0,0-6.677,6.816,11.255,11.255,0,0,0,1.709,11.185,10.884,10.884,0,0,0,5.141,3.8c.164.058.387.082.382.343.028.391.4.453.637.616a14.354,14.354,0,0,0,4.773,2.184c.122.031.438-.072.353.273a2.441,2.441,0,0,1-1.555.274,15.44,15.44,0,0,1-2.614-.109,1.568,1.568,0,0,1-.775-.239,27.27,27.27,0,0,1-3.039-1.041,14.185,14.185,0,0,1-8.349-10.8A14.45,14.45,0,0,1,75.881.272,12.292,12.292,0,0,1,80.865.24" transform="translate(-55.286 0.001)" fill="#3f6d8d"/><path d="M19.856,307.068a.224.224,0,0,1-.136.2,2.46,2.46,0,0,0-1.4,2.567c-.031,1.439-.009,2.878-.01,4.317l-.718,0c-.153-.166-.354-.1-.534-.1q-3.186-.008-6.373-.006c0-1.578-.022-3.155,0-4.732a2.224,2.224,0,0,1,2.333-2.266q3.42,0,6.84.016" transform="translate(-9.206 -264.798)" fill="#365e7d"/><path d="M148.416,209.087a25.268,25.268,0,0,0,3.4.214,1.639,1.639,0,0,0-.35,1.276q.013,3.989,0,7.978a1.343,1.343,0,0,1-.14.847,1.587,1.587,0,0,1-.935.137c-.489.008-.978.011-1.467,0a.641.641,0,0,1-.512-.168q0-5.14.006-10.279" transform="translate(-127.987 -180.314)" fill="#b4dbfe"/><path d="M169.337,218.794c0-3.166.01-6.333-.02-9.5,0-.446.245-.478.525-.568a8.657,8.657,0,0,0,1.548-.14l.927-.166a.811.811,0,0,0-.1.494q0,4.94.006,9.88a.706.706,0,0,1-.574.163c-.65,0-1.3.018-1.952-.007a.513.513,0,0,1-.357-.157" transform="translate(-146.017 -179.741)" fill="#daecfe"/><path d="M164.761,283.814l2.585-.01a1.36,1.36,0,0,1,1.533,1.55c.008.546,0,1.093.007,1.64l-5.04-.006a3.681,3.681,0,0,1,.166-2.7c.146-.309.462-.373.749-.469" transform="translate(-141.144 -244.749)" fill="#b4dbfe"/><path d="M141.989,283.8a1.746,1.746,0,0,0-.919,1.785c.006.462,0,.925,0,1.388l-3.814.006c0-.547,0-1.094.006-1.64a1.361,1.361,0,0,1,1.528-1.551l2.9,0,.3.011" transform="translate(-118.372 -244.734)" fill="#8ac9fe"/><path d="M91.62,42.655c-.213-.228-.526-.227-.787-.344a11.661,11.661,0,0,1-7.149-9.032A11.228,11.228,0,0,1,84.877,25.9a11.529,11.529,0,0,1,6.368-5.582.964.964,0,0,0,.168-.105A13.235,13.235,0,0,1,95.9,19.59a11.74,11.74,0,0,1,6.778,2.567,11.575,11.575,0,0,1,3.746,5.219,12.658,12.658,0,0,1,.655,3.037,11.237,11.237,0,0,1-.836,5.448,11.65,11.65,0,0,1-4.895,5.686,11.8,11.8,0,0,1-7.077,1.614,14.571,14.571,0,0,1-2.652-.506" transform="translate(-72.01 -16.88)" fill="#365e7d"/><path d="M131.3,32.424c.271.285.56.513.99.34a.819.819,0,0,0,.53-.854c0-.24.062-.342.321-.314a10.283,10.283,0,0,1,3.06.831c.319.14.1.3.028.44a.835.835,0,0,0,.045.964.761.761,0,0,0,.837.245.775.775,0,0,0,.52-.463c.128-.273.258-.232.46-.079a10.925,10.925,0,0,1,2.139,2.139c.152.2.174.316-.077.475-.528.337-.644.747-.385,1.155a.784.784,0,0,0,1.168.208c.294-.167.362-.055.467.188a11.5,11.5,0,0,1,.785,2.917c.041.278-.05.347-.321.356-.6.02-.891.281-.9.755-.012.5.274.775.906.8.279.013.355.1.316.366a11.587,11.587,0,0,1-.784,2.917c-.112.261-.2.329-.476.178a.792.792,0,1,0-.812,1.347c.19.127.344.2.145.458a9.946,9.946,0,0,1-7.4,4.1,3.025,3.025,0,0,1-1.488-.638,11.169,11.169,0,0,1-.535-18.68c.132-.1.268-.225.463-.159" transform="translate(-108.703 -27.244)" fill="#daecfe"/><path d="M104.91,32.407a11.057,11.057,0,0,0-5.012,7.6,10.364,10.364,0,0,0,.731,5.966,11.084,11.084,0,0,0,5.842,5.907,7.9,7.9,0,0,1-3.447-.27,10.138,10.138,0,0,1-5.534-3.7c-.2-.261-.275-.413.081-.621a.758.758,0,0,0,.318-1.1.77.77,0,0,0-1.116-.248c-.313.185-.416.11-.545-.193a11.667,11.667,0,0,1-.766-2.867c-.039-.26.024-.36.311-.373.636-.03.92-.3.91-.8-.009-.474-.3-.737-.9-.759-.268-.009-.369-.075-.327-.355a11.787,11.787,0,0,1,.783-2.916c.128-.3.235-.327.516-.167a.772.772,0,0,0,1.147-.275.761.761,0,0,0-.363-1.084c-.3-.18-.274-.313-.091-.55a11.351,11.351,0,0,1,2.108-2.1c.206-.158.313-.16.466.084a.823.823,0,0,0,1.166.382.805.805,0,0,0,.19-1.177c-.151-.27-.061-.335.17-.437a11.34,11.34,0,0,1,2.707-.769c.379-.066.643-.027.579.463a1.082,1.082,0,0,0,.075.348" transform="translate(-82.314 -27.227)" fill="#b4dbfe"/><path d="M152.871,70.281a2.725,2.725,0,0,1-3.538-3.39c.644-1.653,1.39-3.265,2.1-4.894a.539.539,0,0,1,.51-.366.531.531,0,0,1,.513.361,8.158,8.158,0,0,1,.524,1.275c.094.233-.033.429-.112.63-.369.935-.828,1.833-1.182,2.761.074.14.191.086.284.1a.914.914,0,0,1,.816.788.952.952,0,0,1-.581,1.127c-.516.225-.513.223-.184.66a2.583,2.583,0,0,0,.555.524c.141.1.35.175.3.422" transform="translate(-128.627 -53.151)" fill="#d94a54"/><path d="M167.169,80.529c-.4-.384-.926-.647-1.191-1.167-.1-.191-.337-.43.146-.49.694-.087.911-.392.835-1.078-.051-.462-.427-.7-1.028-.652-.048,0-.1.01-.2.021l1.542-3.647c.516,1.19,1.081,2.362,1.537,3.574a2.647,2.647,0,0,1-1.641,3.44" transform="translate(-142.925 -63.398)" fill="#dc636e"/><path d="M155.851,144.637c.463,0,.926-.006,1.388,0a.763.763,0,0,1,.8.693.776.776,0,0,1-.775.845q-1.388.03-2.776,0a.776.776,0,0,1-.772-.848.764.764,0,0,1,.8-.69c.445-.007.891,0,1.337,0" transform="translate(-132.56 -124.732)" fill="#b5dbfe"/></g></g></g></svg>