<svg xmlns="http://www.w3.org/2000/svg" xmlns:xlink="http://www.w3.org/1999/xlink" width="124.701" height="52.536" viewBox="0 0 124.701 52.536"><defs><clipPath id="a"><rect width="31.402" height="52.536" fill="none"/></clipPath></defs><g transform="translate(-179.546 -4100.215)"><rect width="109" height="42" transform="translate(179.546 4110.75)" fill="#a3314f"/><g transform="translate(272.845 4100.215)"><g clip-path="url(#a)"><path d="M59.029,0a1.266,1.266,0,0,1,.66,1.751A11.956,11.956,0,0,1,56.667,7.13a1.312,1.312,0,0,0-.3,1.547q.466,1.08.991,2.135a2.985,2.985,0,0,0,.9,1.029,2.97,2.97,0,0,1-.66,5.238,2.946,2.946,0,0,1-3.974-2.76,7.326,7.326,0,0,0-.853-3.425.955.955,0,0,0-1.292-.588,11.574,11.574,0,0,1-3.63.482c-.824-.011-1.216.4-1.227,1.23a5.741,5.741,0,0,0,.576,2.717,2.947,2.947,0,0,1-1.963,4.222,2.88,2.88,0,0,1-2.953-.994,2.786,2.786,0,0,1-.37-3.206,5.343,5.343,0,0,0,.591-2.761c-.033-.8-.411-1.217-1.2-1.206a11.323,11.323,0,0,1-3.679-.492,1.293,1.293,0,0,0-.947.091c-.114-.392.162-.679.292-.995a1.471,1.471,0,0,0-.353-2.02,12.237,12.237,0,0,1-3.091-5.747C33.327.783,33.481.378,34.1,0Z" transform="translate(-28.858)" fill="#feb5ba"/><path d="M8.195,0A1.646,1.646,0,0,0,7.8,1.869a12.367,12.367,0,0,0,3.1,5.5,1.433,1.433,0,0,1,.341,1.934c-.165.355-.311.719-.466,1.079A6.627,6.627,0,0,0,9.6,14.226a2.873,2.873,0,0,1-2.23,2.929,2.938,2.938,0,0,1-3.315-1.417,2.769,2.769,0,0,1,.616-3.614A8.261,8.261,0,0,0,6.887,8.576a1.254,1.254,0,0,0-.338-1.448,12.016,12.016,0,0,1-3-5.331C3.293.829,3.389.525,4.194,0Z" transform="translate(-2.954)" fill="#fe9aa0"/><path d="M77.733,223.508q-.5,3.925-1,7.851c-.256,2.009-.505,4.019-.762,6.029-.056.436-.129.869-.194,1.3a1.7,1.7,0,0,1-1.05.489,3.808,3.808,0,0,1-3.39-.874.976.976,0,0,0-1.6,0,3.869,3.869,0,0,1-5.056.014c-.6-.585-1.027-.58-1.636.008a3.832,3.832,0,0,1-4.972.031,1.105,1.105,0,0,0-1.511-.242c-.294.185-.4-.019-.465-.253a9.342,9.342,0,0,1-.134-1.066c-.052-.337-.092-.676-.147-1.013-.016-.179.113-.273.223-.38,1.088-1.06,2.145-2.152,3.23-3.215,1.451-1.421,2.78-2.961,4.253-4.36a2.386,2.386,0,0,1,.908-.648c1.068-.153,1.414-.5,1.553-1.563a2.393,2.393,0,0,1,2.519-2.261c2.887-.02,5.773-.009,8.66,0a.7.7,0,0,1,.574.154" transform="translate(-48.158 -192.723)" fill="#60b8fd"/><path d="M63.542,196.086q-4.655,0-9.311,0a2.265,2.265,0,0,0-2.3,2.081c-.124,1.271-.581,1.7-1.838,1.72-.09-.178.058-.285.133-.405a.569.569,0,0,0-.165-.806.54.54,0,0,0-.78,0c-.287.24-.529.526-.8.777-.157.142-.3.351-.567.209a1.788,1.788,0,0,1-.643-1.284,2.13,2.13,0,0,0-2.355-2.143c-1.514-.019-3.028.031-4.542-.024a.773.773,0,0,1-.173-.046,1.4,1.4,0,0,1-.832-1.4c.02-.666-.007-1.332.009-2a1.085,1.085,0,0,1,.852-1.179q4.074-.006,8.149-.012,7.79,0,15.581,0c.976,0,1.41.43,1.413,1.393q0,.846,0,1.692c0,1.027-.4,1.43-1.416,1.435-.137,0-.273,0-.41,0" transform="translate(-33.968 -165.301)" fill="#8ac9fe"/><path d="M35.977,313.6a5.256,5.256,0,0,1,.287,1.686,2.286,2.286,0,0,0,.147.691c.882-.518,1.13-.493,1.87.188a3.679,3.679,0,0,0,4.771-.066c.684-.658,1.146-.656,1.839.009a3.648,3.648,0,0,0,4.844-.023c.657-.637,1.126-.621,1.805,0a3.626,3.626,0,0,0,3.908.638c.143-.05.286-.1.429-.152-.183,1.5-.329,3.016-.562,4.513a2.4,2.4,0,0,1-2.307,2.041c-4.726.018-9.451,0-14.177-.005a4.126,4.126,0,0,1-2.164-3.27c-.146-.993-.268-1.993-.338-3-.024-.34-.13-.4-.442-.221a3.6,3.6,0,0,1-3.049.325c-.173-.155-.047-.29.053-.392.953-.978,1.91-1.952,2.9-2.893a.279.279,0,0,1,.187-.071" transform="translate(-28.262 -270.599)" fill="#1ca7fe"/><path d="M17.79,223.444c.031.005.061.009.092.012.238.093.239.307.262.511q.481,4.3,1,8.6a3.883,3.883,0,0,1,.012.869,1,1,0,0,1-.353.606q-1.593,1.6-3.194,3.19c-.123.122-.23.318-.465.232q-.609-4.748-1.218-9.5-.289-2.26-.569-4.522a.779.779,0,0,1,.622-.168c1.024-.008,2.048,0,3.071,0a1.9,1.9,0,0,1,.741.168" transform="translate(-11.524 -192.661)" fill="#1ca7fe"/><path d="M7.662,252.8c1.337-1.244,2.6-2.56,3.884-3.861a2.011,2.011,0,0,1,.4-.528q2.862-2.856,5.72-5.716c.131-.13.243-.291.444-.329.331-.316.663-.629.992-.948.461-.446.763-.488,1.144-.151.412.364.413.676.005,1.181a.961.961,0,0,0-.076.131c-2.534,2.4-4.892,4.98-7.4,7.411-.341.331-.676.668-1.014,1l-3.226,3.26c-.075.347-.355.529-.6.738-.547.247-.847.774-1.284,1.145a5.192,5.192,0,0,1-.771.667.727.727,0,0,1-1.025-.256.678.678,0,0,1,.126-1c.768-.78,1.547-1.548,2.318-2.325.131-.132.243-.284.364-.426" transform="translate(-4.043 -207.992)" fill="#daecfe"/><path d="M28.375,333.869c.056-.363.37-.516.6-.738a3.967,3.967,0,0,0,3.569-.673,9.507,9.507,0,0,1,.259,1.772c.088.724.126,1.456.257,2.171a5.031,5.031,0,0,0,2,2.989c-1.3.005-2.6.038-3.891.007a2.5,2.5,0,0,1-2.354-2.179c-.151-1.115-.29-2.232-.434-3.349" transform="translate(-24.485 -286.874)" fill="#0093fc"/><path d="M6.266,196.1l-4.435,0c-.221,0-.443.009-.664,0a1.129,1.129,0,0,1-1.15-1.123c-.024-.748-.022-1.5,0-2.247A1.132,1.132,0,0,1,1.2,191.586c1.685-.007,3.37,0,5.056.008a1.441,1.441,0,0,0-.721,1.46,7.458,7.458,0,0,1,0,1.534,1.491,1.491,0,0,0,.729,1.51" transform="translate(0 -165.316)" fill="#60b8fd"/><path d="M54.08,228.077q-2.246,2.266-4.493,4.53c-.683.686-1.378,1.362-2.068,2.042a35.365,35.365,0,0,0-.382-3.847c-.136-1.3-.282-2.6-.446-3.891a21.607,21.607,0,0,0-.315-2.411c1.633,0,3.267-.027,4.9-.006a2.185,2.185,0,0,1,2.165,2.028,2.574,2.574,0,0,0,.639,1.554" transform="translate(-40.017 -193.707)" fill="#60b8fd"/></g></g></g></svg>