<svg xmlns="http://www.w3.org/2000/svg" xmlns:xlink="http://www.w3.org/1999/xlink" width="189.958" height="52.756" viewBox="0 0 189.958 52.756"><defs><clipPath id="a"><rect width="43.993" height="52.756" fill="none"/></clipPath></defs><g transform="translate(-179.546 -5832)"><rect width="161" height="42" transform="translate(179.546 5842.536)" fill="#a3314f"/><g transform="translate(325.512 5832)"><g clip-path="url(#a)"><path d="M58.391,0a2.349,2.349,0,0,1,1.7,1.744,1.435,1.435,0,0,1,.052.3A45.747,45.747,0,0,0,60.362,6.7a51.86,51.86,0,0,0,1.5,9.062,4.007,4.007,0,0,0,1.788,2.151,51.98,51.98,0,0,0,5.71,3.432,43.784,43.784,0,0,1,5.773,3.623,7.725,7.725,0,0,1,1.8,1.813c-.172.126-.331.031-.477-.044a2.217,2.217,0,0,0-2.1.087c-.763.375-1.541.718-2.306,1.089-1.255.558-2.5,1.131-3.74,1.732-1.217.508-2.392,1.109-3.6,1.644-.66.309-1.332.592-1.98.925-.629.244-1.228.555-1.843.832-1.09.529-2.21,1-3.293,1.542-.712.263-1.37.648-2.072.936a6.373,6.373,0,0,1-.866.382c-.142.043-.306.184-.438-.029a1.2,1.2,0,0,1,.188-.63,13.051,13.051,0,0,0,1.167-4.294,2.665,2.665,0,0,0-.774-1.949,10.01,10.01,0,0,0-3.52-2.357c-.157-.07-.315-.135-.477-.193a2.607,2.607,0,0,1-1.82-2.431c-.3-3.361-.678-6.714-1.007-10.073-.286-2.915-.589-5.829-.866-8.745-.081-.852-.152-1.706-.267-2.555A2.541,2.541,0,0,1,47.288.8a1.871,1.871,0,0,1,1.42-.8Z" transform="translate(-40.369)" fill="#cbf1fd"/><path d="M8.339,0C6.858.618,6.479,1.331,6.675,2.956c.145,1.2.207,2.411.329,3.615.153,1.525.337,3.047.493,4.571.121,1.187.211,2.377.33,3.564.118,1.169.26,2.335.382,3.5.085.814.151,1.629.234,2.443.136,1.339.24,2.683.433,4.013a2.074,2.074,0,0,0,1.45,1.6,12.829,12.829,0,0,1,3.83,2.242,3.464,3.464,0,0,1,1.05,3.717,24.8,24.8,0,0,1-1.295,3.72c-.043.169-.191.228-.32.307q-1.581.71-3.141,1.468c-1.319.585-2.635,1.177-3.93,1.814-.532.127-.941.544-1.488.637.639-1.171,1.307-2.327,1.91-3.516A18.693,18.693,0,0,0,8.5,32.638c.576-2.366.36-3.186-1.763-4.794a10.849,10.849,0,0,0-2.756-1.472,2.466,2.466,0,0,1-1.832-2.54c-.108-1.514-.313-3.021-.468-4.532-.12-1.172-.226-2.345-.344-3.517-.125-1.239-.26-2.478-.386-3.717C.833,10.929.729,9.79.613,8.652.453,7.073.284,5.495.125,3.916.072,3.389.012,2.861,0,2.332A2.15,2.15,0,0,1,1.476.105,1.193,1.193,0,0,0,1.643,0Z" transform="translate(0)" fill="#98e5fc"/><path d="M124.891,240.52a33.24,33.24,0,0,1,3.3-1.536.5.5,0,0,1,.648.118c.073.073.148.143.221.216q9.386,9.385,18.767,18.775c.174.174.488.306.348.658l-5.151,0a4.678,4.678,0,0,1-.451-.42q-8.529-8.531-17.052-17.068c-.224-.225-.618-.329-.629-.741" transform="translate(-107.697 -206.021)" fill="#9ad3f4"/><path d="M176.548,216.329a31.565,31.565,0,0,1,3.606-1.647c.375-.068.55.228.759.436q4.567,4.555,9.124,9.119,2.362,2.362,4.726,4.723a6.666,6.666,0,0,1,.837.97,18.788,18.788,0,0,1,.4,2.553c.127,1.024.16,2.061.221,3.093.01.177.066.379-.1.531a12.243,12.243,0,0,0-1.608-1.794q-8.586-8.584-17.163-17.178c-.267-.268-.668-.406-.8-.806" transform="translate(-152.243 -185.118)" fill="#bbd5f2"/><path d="M47.056,274.971c1.258-.719,2.611-1.237,3.921-1.846a1.213,1.213,0,0,1,.744.414q7.08,7.078,14.155,14.161c.142.143.385.269.242.549H60.349c-2.924-3.082-5.991-6.023-8.976-9.044-1.132-1.146-2.286-2.269-3.408-3.424-.286-.295-.677-.462-.909-.81" transform="translate(-40.578 -235.524)" fill="#6bd0f6"/><path d="M90.679,279.144c-.006-.218-.183-.321-.313-.451q-7.07-7.075-14.139-14.151c-.21-.211-.476-.327-.689-.523,1.058-.5,2.09-1.05,3.193-1.445a.961.961,0,0,1,.839.408q2.581,2.586,5.166,5.168,5.167,5.167,10.33,10.338c.174.175.487.305.351.658H90.679" transform="translate(-65.139 -226.418)" fill="#7bd1f5"/><path d="M33.666,286.534a2.921,2.921,0,0,1,.948.684q5.933,5.946,11.876,11.882a1.224,1.224,0,0,1,.468.712H41.6a3.762,3.762,0,0,1-.454-.415q-4.468-4.47-8.939-8.937a.89.89,0,0,0-.463-.333c-.013.763-.021,1.507.013,2.254.017.845.02,1.689,0,2.534.032.77.015,1.54.011,2.31a.668.668,0,0,1-.175.568.89.89,0,0,1-.064-.5q0-4.03,0-8.06a2.6,2.6,0,0,1,.682-1.977,3.92,3.92,0,0,1,1.446-.72" transform="translate(-27.188 -247.087)" fill="#57cff7"/><path d="M218.183,219.031c-.331-.031-.389-.36-.574-.545q-7.175-7.15-14.331-14.321a1.673,1.673,0,0,0-.54-.383,20.025,20.025,0,0,1,2.274-1.115c.464-.241.956-.425,1.436-.635a3.641,3.641,0,0,1,.692.68q4.258,4.243,8.506,8.5a4.784,4.784,0,0,1,.995,1.227,50.675,50.675,0,0,1,1.533,6.288,1.955,1.955,0,0,1,.01.306" transform="translate(-174.827 -174.219)" fill="#ccd6f1"/><path d="M168.836,253.739c0-.219-.18-.323-.31-.453q-9.485-9.489-18.971-18.977c-.2-.2-.388-.393-.7-.338a8.254,8.254,0,0,1,1.852-.825.628.628,0,0,1,.663.146,2.99,2.99,0,0,1,.337.317q9.469,9.469,18.935,18.941c.264.264.665.507.363.992a4.8,4.8,0,0,1-2.166.2" transform="translate(-128.36 -201.009)" fill="#aad4f3"/><path d="M182.6,248.029a.858.858,0,0,0-.3-.77q-9.628-9.611-19.24-19.238a1.4,1.4,0,0,0-.758-.388,9.347,9.347,0,0,1,1.962-.927,5.545,5.545,0,0,1,1.156,1q8.866,8.865,17.729,17.734a1.817,1.817,0,0,1,.687,1.04,1.865,1.865,0,0,1-1.235,1.545" transform="translate(-139.957 -195.496)" fill="#abd4f3"/><path d="M111.985,250.587q8.875,8.852,17.747,17.706c.153.152.369.267.385.524h-2.68a3.052,3.052,0,0,1-.662-.639q-7.988-7.977-15.965-15.967a6.71,6.71,0,0,0-.886-.687,14.038,14.038,0,0,1,2.061-.936" transform="translate(-94.791 -216.089)" fill="#8ad2f5"/><path d="M100.273,257.382a.939.939,0,0,1,.714.349q8.221,8.224,16.446,16.445a1.7,1.7,0,0,1,.353.5h-2.368c0-.218-.182-.321-.312-.451q-7.849-7.853-15.694-15.71a3.308,3.308,0,0,0-.68-.41l.318-.215,1.223-.507" transform="translate(-85.14 -221.947)" fill="#89d2f5"/><path d="M239.876,203.385c-.242-.261-.476-.53-.727-.782q-4.484-4.49-8.973-8.974a1.85,1.85,0,0,1-.492-.648q1.295-.622,2.59-1.244a2.6,2.6,0,0,1,2.353.215,12.328,12.328,0,0,1,1.531,2.469,46.259,46.259,0,0,1,3.719,8.963" transform="translate(-198.063 -165.168)" fill="#dcd7f1"/><path d="M32.166,313.222c0-.686-.008-1.373-.009-2.059,0-.1-.027-.232.1-.257.062-.012.15.063.213.115.092.076.172.167.257.252q4.515,4.515,9.028,9.032c.153.153.368.268.388.523H39.775q-3.721-3.886-7.609-7.6" transform="translate(-27.728 -268.101)" fill="#49cef8"/><path d="M32.239,327.742a1.1,1.1,0,0,1,.64.394q3.284,3.288,6.572,6.572a1.122,1.122,0,0,1,.4.639h-2.68c-1.586-1.7-3.22-3.344-4.927-4.919q0-1.343,0-2.685" transform="translate(-27.801 -282.622)" fill="#48cdf8"/><path d="M32.064,347.249a1.026,1.026,0,0,1,.641.39q1.944,1.946,3.89,3.889a1.1,1.1,0,0,1,.4.64c-.938.006-1.875.019-2.813.015a2.145,2.145,0,0,1-2.144-2.034q.015-1.45.031-2.9" transform="translate(-27.623 -299.443)" fill="#38ccf9"/></g></g></g></svg>