<svg id="Grupo_887069" data-name="Grupo 887069" xmlns="http://www.w3.org/2000/svg" width="83.422" height="52.756" viewBox="0 0 83.422 52.756">
  <g id="vaca" transform="translate(0 0)">
    <path id="Trazado_621464" data-name="Trazado 621464" d="M435.542,262.254h.034a.755.755,0,0,0,.721-.789c-.387-8.657-.179-15.02,6.064-18.05a6.14,6.14,0,0,1,2.239-.407.755.755,0,0,0,.034-1.511,7.636,7.636,0,0,0-2.881.534l-.03.013a11.464,11.464,0,0,0-6.366,8.005c-.849,3.365-.754,7.352-.569,11.481A.755.755,0,0,0,435.542,262.254Z" transform="translate(-433.736 -232.797)" fill="#5b384a"/>
    <path id="Trazado_621465" data-name="Trazado 621465" d="M364.626,404.238c-.639,1.687-.462,6.078-.629,7.13a2.9,2.9,0,0,1,1.462,2.513h3.935c.535,0,.871-1.717-.89-2.608a34.479,34.479,0,0,1,1.121-5.752c.223-.618,2.788-2.457,3.728-6.355a4.018,4.018,0,0,0-.631-2.3,2.538,2.538,0,0,0-4.045-.266A47.288,47.288,0,0,0,364.626,404.238Z" transform="translate(-349.857 -361.129)" fill="#e5b490"/>
    <path id="Trazado_621466" data-name="Trazado 621466" d="M59.632,235.842a9.9,9.9,0,0,1,2.357-3.323,10.871,10.871,0,0,1,6.287-2.816c6.083.644,18.582.607,21.853.112.473-.072.945-.283,1.445-.334,5.893-.6,13.476.107,18.434-.126.643-.03,8.439-.446,14.829,4.483,1.85,1.427,3.273,3.439,3.57,7.214a7.359,7.359,0,0,0-4.829,1.618c-3.107,2.55-5.851,8.542-6.8,10.188-3.672,6.392-9.2,10.815-9.483,12.365-.3,1.668-1.438,6.372-1.636,7.525,1.412.765,1.039,2.6.5,2.6l-4.125,0a.6.6,0,0,1-.453-.207c-.373-.435-1.109-1.779-1.286-4.854a63.785,63.785,0,0,0-1.835-10.148c-.247-1.017-6.831-1.186-9.044-1.4a70.845,70.845,0,0,0-14.267.539,35.775,35.775,0,0,0-5.062,7.135,44.237,44.237,0,0,0-1.415,6.422c1.5.775,1.449,2.17,1.039,2.459a.277.277,0,0,1-.161.054H66.132a.6.6,0,0,1-.452-.2c-.374-.418-1.111-1.667-1.286-4.617-.314-5.247-2.84-12.177-3.181-13.585-1.015-4.208-2.021-7.947-2.486-11.358C59.043,242.326,59.589,239.619,59.632,235.842Z" transform="translate(-53.673 -222.589)" fill="#efe1c2"/>
    <g id="Grupo_887065" data-name="Grupo 887065" transform="translate(4.786 6.859)">
      <path id="Trazado_621467" data-name="Trazado 621467" d="M456.322,268.585c2.63-.243,3.642,5.923-.9,9.74A17.862,17.862,0,0,1,456.322,268.585Z" transform="translate(-455.149 -262.191)" fill="#664856"/>
      <path id="Trazado_621468" data-name="Trazado 621468" d="M236.253,306.711a2.173,2.173,0,0,1,1.868,2.751c-.547,1.445-2.806,2.454-4.094,2.353s-1.8-1.85-1.467-3.09S234.964,306.61,236.253,306.711Z" transform="translate(-197.441 -293.916)" fill="#664856"/>
      <path id="Trazado_621469" data-name="Trazado 621469" d="M322.925,310.677c2.263-.6,8.98-3,12.224.42s-4.2,4.95-8.112,7.5C319.988,323.181,317.346,312.155,322.925,310.677Z" transform="translate(-309.837 -296.077)" fill="#664856"/>
      <path id="Trazado_621470" data-name="Trazado 621470" d="M278.344,230.829a.5.5,0,0,1,.2-.064c7.352-.733,18.473.465,21.729-.028.473-.072.962-.133,1.462-.183v.007c.757,2.613-4.26,9.087-8.026,8.265-3.27-.713-2.981-2.576-5.032-2.979-2.35-.462-3.511.522-5.92-.294C280.872,234.913,276.013,232.2,278.344,230.829Z" transform="translate(-268.623 -230.52)" fill="#664856"/>
    </g>
    <path id="Trazado_621471" data-name="Trazado 621471" d="M131.388,386c-.3,1.67-1,5.834-1.2,6.987,1.044.5,1.986,2.153.871,2.623v0h2.917c.535,0,.561-1.972-.851-2.738.2-1.153.88-5.091,1.178-6.759.27-1.5,4.131-6.267,7.7-12.358a5.163,5.163,0,0,1-1.794.666,4.619,4.619,0,0,0-3.226,2.461C134.721,381.369,131.691,384.317,131.388,386Z" transform="translate(-79.269 -342.859)" fill="#e5b490"/>
    <path id="Trazado_621472" data-name="Trazado 621472" d="M15.392,199.85a2.367,2.367,0,0,1-1.546,2.534,4.964,4.964,0,0,1-.99.246c-.581.072-1.22.119-1.91.149-1.952,1.18-1.9,4.443-1.027,6.6s-1.907,2.941-2.769,5.287c-1.341,3.642,5.316,7.343,9.515,1.917a11.444,11.444,0,0,1,6.491-4.309c1.044-.218,4.325-.723,6.136,2.2,1.391-.037,2.707.164,3.812.112,4.879-.226,6.088-3.957,4.206-6.353-1.539-1.959-6.835-5.43-8.815-8.251a5.853,5.853,0,0,0-3.424-2.429,6.255,6.255,0,0,0-3.537-.015c-.376.137-4.122.8-6.141,2.31Z" transform="translate(45.268 -196.009)" fill="#664856"/>
    <ellipse id="Elipse_6638" data-name="Elipse 6638" cx="0.839" cy="0.839" rx="0.839" ry="0.839" transform="translate(72.085 5.88)" fill="#6d3c50"/>
    <path id="Trazado_621473" data-name="Trazado 621473" d="M102.19,189.716c1.5-.347,3.6.933,4.929,2.377a1.009,1.009,0,0,1-.265,1.575l-4.591,2.444a1.008,1.008,0,0,1-1.392-.474C99.985,193.694,99.695,190.293,102.19,189.716Z" transform="translate(-39.619 -189.658)" fill="#664856"/>
    <path id="Trazado_621474" data-name="Trazado 621474" d="M237.12,388.064a9.337,9.337,0,0,0,2.012,1.355,10.3,10.3,0,0,0,2.562.953.338.338,0,0,1,.271.372c-.275,2.46,2.343,2.4,2.655.47a.334.334,0,0,1,.357-.275,13.024,13.024,0,0,0,2.08-.014.336.336,0,0,1,.368.305c.078,1.182.581,1.7,1.528,1.611s1.225-1.044,1.313-1.532a.331.331,0,0,1,.329-.273c2.354.022,7.617-1.312,9.834-2.111l-.007-.031c-.464-1.912-4.98-4.895-12.732-4.895C239.917,384,237.12,388.064,237.12,388.064Z" transform="translate(-215.637 -351.381)" fill="#ff9280"/>
    <path id="Trazado_621475" data-name="Trazado 621475" d="M7.965,260.5a4.415,4.415,0,0,0,3.691-2.845,3.506,3.506,0,0,0,.106-1.588,3.885,3.885,0,0,0-.8-1.783,9.935,9.935,0,0,0-1.677-1.657C6.911,253.179,6.186,258.437,7.965,260.5Z" transform="translate(71.614 -242.061)" fill="#ff9280"/>
    <path id="Trazado_621476" data-name="Trazado 621476" d="M481.447,359.471a5.491,5.491,0,0,0-1.15,4.1c.258,2.038,1.4,3.045,2.338,2.976s.613-1.964,1.368-2.811c.676-.762-.208-3.055-1.314-4.3a.809.809,0,0,0-1.242.039Z" transform="translate(-480.255 -330.71)" fill="#664856"/>
    <ellipse id="Elipse_6639" data-name="Elipse 6639" cx="0.839" cy="0.839" rx="0.839" ry="0.839" transform="translate(72.084 5.88)" fill="#562442"/>
    <path id="Trazado_621477" data-name="Trazado 621477" d="M6.984,272.37a.755.755,0,0,0,.861.633,2.754,2.754,0,0,1,1.5.258.718.718,0,0,0,.22.077,3.506,3.506,0,0,0,.106-1.588,4.294,4.294,0,0,0-2.058-.242.755.755,0,0,0-.633.861Z" transform="translate(73.701 -257.742)" fill="#ef6060"/>
    <path id="Trazado_621478" data-name="Trazado 621478" d="M112.613,202.142a8.92,8.92,0,0,1,2,1.271.78.78,0,0,1,.145,1.08.755.755,0,0,1-1.068.116,7.516,7.516,0,0,0-1.686-1.084.755.755,0,0,1,.605-1.383Z" transform="translate(-49.048 -199.996)" fill="#5b394a"/>
  </g>
  <g id="cabra" transform="translate(16.452 11.174)">
    <path id="Trazado_621488" data-name="Trazado 621488" d="M28.91,163.325a25.9,25.9,0,0,0-1.474,2.916.555.555,0,0,1-.885.2,10.409,10.409,0,0,1-2.832-4.184Z" transform="translate(15.249 -149.949)" fill="#dcb491"/>
    <path id="Trazado_621489" data-name="Trazado 621489" d="M473.146,114.708a.3.3,0,0,1,.552.175,2.766,2.766,0,0,0,.994,2.349,2.988,2.988,0,0,1,.829,3.158l-.907,1.063S470.027,119.239,473.146,114.708Z" transform="translate(-472.059 -106.577)" fill="#ebc9a0"/>
    <path id="Trazado_621490" data-name="Trazado 621490" d="M1.944,81.251c.563-3-1.157-5.144-1.157-8.4,0-3.377,2.018-5.566,5.159-6.614,5.066-1.689,18.949,0,23.452-2.814a12.562,12.562,0,0,0,2.658-3.249,5.573,5.573,0,0,1,2.185-1.936,5.314,5.314,0,0,1,6.027,1.024,55.4,55.4,0,0,1,4.982,5.775,1.5,1.5,0,0,1,.224,1.376l-.411,1.232A1.493,1.493,0,0,1,43.6,68.676a15.264,15.264,0,0,1-6.656-1.523c-1.6,3.047-2.642,10.654-8.612,12.722l-1.5,6.191V92.7l1.3,3.009a.532.532,0,0,1-.488.744H25.211a.532.532,0,0,1-.531-.5L23.786,80.36A35.292,35.292,0,0,1,9.649,78.788a21.67,21.67,0,0,1-6.891,6.684l1,7.223,1.3,3.008a.532.532,0,0,1-.488.744H2.091a.532.532,0,0,1-.527-.455L.012,85.468a1.02,1.02,0,0,1,.214-.794A8.318,8.318,0,0,0,1.944,81.251Z" transform="translate(0.751 -54.866)" fill="#f5dcb4"/>
    <path id="Trazado_621491" data-name="Trazado 621491" d="M96.374,28.635l-1.992,1.476a.78.78,0,0,1-1.011-.082,15.93,15.93,0,0,0-5.522-3.351.255.255,0,0,1,.058-.491A12.126,12.126,0,0,1,96.374,28.635Z" transform="translate(-58 -26.109)" fill="#825a5a"/>
    <path id="Trazado_621492" data-name="Trazado 621492" d="M63.234,98.155a.75.75,0,1,0,.007-1.5h-.007a.75.75,0,1,0,0,1.5Z" transform="translate(-23.335 -90.274)" fill="#4b3f4e"/>
    <g id="Grupo_887067" data-name="Grupo 887067" transform="translate(2.066 38.521)">
      <path id="Trazado_621493" data-name="Trazado 621493" d="M450.493,455.114h-2.482a.532.532,0,0,1-.527-.455l-.25-1.691,2.743-.914,1,2.316A.532.532,0,0,1,450.493,455.114Z" transform="translate(-447.235 -452.054)" fill="#6e4848"/>
      <path id="Trazado_621494" data-name="Trazado 621494" d="M195.133,455.114h-2.439a.532.532,0,0,1-.531-.5l-.1-1.707,2.553-.851,1,2.316A.532.532,0,0,1,195.133,455.114Z" transform="translate(-168.798 -452.054)" fill="#6e4848"/>
    </g>
    <g id="Grupo_887068" data-name="Grupo 887068" transform="translate(10.4 8.169)">
      <path id="Trazado_621495" data-name="Trazado 621495" d="M240.684,266.3c.323-.6.565-1.116.745-1.532a1.489,1.489,0,0,1,1.843-.808,38.208,38.208,0,0,0,10.41,1.742,1.118,1.118,0,0,1,1.084,1.065l.056,1.1A35.293,35.293,0,0,1,240.684,266.3Z" transform="translate(-240.684 -250.551)" fill="#ebc9a0"/>
      <path id="Trazado_621496" data-name="Trazado 621496" d="M100.2,145.875c-.2-1.8.86-2.392,1.454-2.142.749.316.719.813,2.108,1.6-1.6,3.047-2.642,10.654-8.612,12.722C98.155,155.928,100.614,149.507,100.2,145.875Z" transform="translate(-76.466 -141.215)" fill="#ebc9a0"/>
      <path id="Trazado_621497" data-name="Trazado 621497" d="M0,121.648c2.287-.77,3.443-3.156,3.688-5.213.671.819,1.223,1.531,1.581,2.006a1.5,1.5,0,0,1,.224,1.376l-.411,1.232a1.493,1.493,0,0,1-1.461,1.026A20.976,20.976,0,0,1,0,121.648Z" transform="translate(30.333 -116.435)" fill="#ebc9a0"/>
    </g>
    <path id="Trazado_621498" data-name="Trazado 621498" d="M102.146,28.947a11.027,11.027,0,0,1,7.36,3.237l-.686.508a.78.78,0,0,1-1.011-.082,15.93,15.93,0,0,0-5.522-3.351A.24.24,0,0,1,102.146,28.947Z" transform="translate(-72.438 -28.69)" fill="#6e4848"/>
    <path id="Trazado_621499" data-name="Trazado 621499" d="M70.869,42.347A8.992,8.992,0,0,1,70,45.6a.72.72,0,0,1-.922.344l-1.843-.778a.714.714,0,0,1-.216-1.176,10.032,10.032,0,0,1,3.391-2A.343.343,0,0,1,70.869,42.347Z" transform="translate(-30.607 -40.541)" fill="#ebc9a0"/>
    <path id="Trazado_621500" data-name="Trazado 621500" d="M.084,145.07c.109-.341.552-.509,1.054-.441a1.49,1.49,0,0,1-.028.819l-.229.687C.314,145.921-.04,145.459.084,145.07Z" transform="translate(45.116 -133.897)" fill="#825a5a"/>
  </g>
  <g id="Flat" transform="translate(3.612 17.523)">
    <g id="Grupo_887066" data-name="Grupo 887066" transform="translate(1.409 25.744)">
      <path id="Trazado_621479" data-name="Trazado 621479" d="M344,352v2.819l2.819,6.342h2.819l-2.114-6.342.7-2.819" transform="translate(-338.363 -351.671)" fill="#4d5e78"/>
      <path id="Trazado_621480" data-name="Trazado 621480" d="M234.95,352v3.523l1.854,5.637h2.819l-1.149-5.637V352" transform="translate(-218.743 -351.671)" fill="#4d5e78"/>
      <path id="Trazado_621481" data-name="Trazado 621481" d="M168,351.33v3.582l1.409,5.637h2.819l-.7-5.637.354-3.538" transform="translate(-145.451 -351.06)" fill="#4d5e78"/>
      <path id="Trazado_621482" data-name="Trazado 621482" d="M409.18,348.27,408,351.417l2.114,6.342h2.819l-1.409-6.342,2.114-2.819" transform="translate(-408 -348.27)" fill="#4d5e78"/>
    </g>
    <path id="Trazado_621483" data-name="Trazado 621483" d="M24,68.684v9.161a4.228,4.228,0,0,0,4.228,4.228H51.479a4.228,4.228,0,0,0,4.228-4.228,4.16,4.16,0,0,0,3.9-2.724,4.08,4.08,0,0,0,.2-.752l1.534-9.208h1.868a1.656,1.656,0,0,0,1.642-1.866,1.713,1.713,0,0,0-.237-.665l-1.864-3.106A3.523,3.523,0,0,0,59.23,56H56.059a3.523,3.523,0,0,0-2.819,1.409L50.07,61.637H31.044q-.357,0-.7.034A7.049,7.049,0,0,0,24,68.684Z" transform="translate(-23.997 -56)" fill="#dbdbd9"/>
    <path id="Trazado_621484" data-name="Trazado 621484" d="M83.683,127.4v9.161a4.228,4.228,0,0,0,4.228,4.228h23.254a4.228,4.228,0,0,0,4.228-4.228,4.16,4.16,0,0,0,3.9-2.724c-10.76-.786-21.783-4.459-29.271-13.449A7.049,7.049,0,0,0,83.683,127.4Z" transform="translate(-83.683 -114.718)" fill="#cfcfcd"/>
    <path id="Trazado_621485" data-name="Trazado 621485" d="M26.114,96h4.933l1.878,3.13a1.655,1.655,0,0,1-1.42,2.507H28.933a2.819,2.819,0,0,1-2.819-2.819h-.7a1.409,1.409,0,0,1,0-2.819Z" transform="translate(7.709 -92.477)" fill="#4d5e78"/>
    <path id="Trazado_621486" data-name="Trazado 621486" d="M352.7,301.637a4.938,4.938,0,0,0,4.933-4.933.7.7,0,1,0-1.409,0,3.527,3.527,0,0,1-3.523,3.523.7.7,0,1,0,0,1.409Z" transform="translate(-345.658 -274.86)" fill="#b0b0ae"/>
    <path id="Trazado_621487" data-name="Trazado 621487" d="M204.933,301.637a.7.7,0,1,0,0-1.409,3.527,3.527,0,0,1-3.523-3.523.7.7,0,1,0-1.409,0A4.938,4.938,0,0,0,204.933,301.637Z" transform="translate(-180.27 -274.86)" fill="#b0b0ae"/>
  </g>
</svg>
