<svg xmlns="http://www.w3.org/2000/svg" width="77.648" height="52.756" viewBox="0 0 77.648 52.756">
  <g id="vaca" transform="translate(-4.652 -24.421)">
    <g id="Grupo_891671" data-name="Grupo 891671" transform="translate(4.652 29.951)">
      <path id="Trazado_627952" data-name="Trazado 627952" d="M109.188,36.5c2.547-3.849,5.425-4.231,7.213-3.389-2.566,3.806-3.8,5.117-4.339,7.42Z" transform="translate(-39.721 -32.743)" fill="#d78759"/>
      <path id="Trazado_627953" data-name="Trazado 627953" d="M5.88,65.088a1.163,1.163,0,0,1-1.162-1.125c-.389-11.9.908-18.274,4.205-20.658,2.47-1.785,5.6-.948,7.741-.161a1.163,1.163,0,1,1-.8,2.183c-2.644-.97-4.364-1.012-5.578-.133C7.752,47.02,6.691,53.136,7.042,63.887a1.163,1.163,0,0,1-1.124,1.2Z" transform="translate(-4.652 -35.93)" fill="#d78759"/>
      <path id="Trazado_627954" data-name="Trazado 627954" d="M38.283,74.473c-2.521,4.5-4.933,7.948-4.933,7.948,0,2.885,1.2,10.532,1.2,10.532H30.065c-.721-6.446-2-7.007-1.362-10.852.369-2.214-.215-6.233-.777-10.652Z" transform="translate(-12.46 -45.728)" fill="#d78759"/>
      <path id="Trazado_627955" data-name="Trazado 627955" d="M76.633,76.42c-2.432,4.293-4.694,7.524-4.694,7.524,0,2.885,1.2,10.532,1.2,10.532H68.654c-.721-6.446-2-7.007-1.362-10.852a31.691,31.691,0,0,0-.391-7.628Z" transform="translate(-25.535 -47.253)" fill="#d78759"/>
    </g>
    <path id="Trazado_627956" data-name="Trazado 627956" d="M84.563,46.7c-1.6,3.044-3.13,4.047-6.931,2.844s-4.951.213-5.835,1.847c-.312.571-1.362,5.177-2.857,7.928v.007a.092.092,0,0,0-.02.027Q68.362,60.406,67.8,61.4c-2.519,4.492-4.924,7.928-4.924,7.928,0,2.884,1.2,10.533,1.2,10.533H59.591c-.718-6.453-2-7-1.356-10.852a15.544,15.544,0,0,0,.06-3.269,27.481,27.481,0,0,1-5.137.3c-1.655-.047-3.316-.073-4.977-.093l-1.741-.02c-6.326-.073-12.533-.159-17.816-1.07-.8-.14-1.568-.292-2.319-.472H26.3c-.671-.159-1.329-.332-1.967-.532-.372-.113-.744-.239-1.1-.365-.206.346-.412.684-.611,1.01-1.748,2.884-3.11,4.831-3.11,4.831,0,2.884,1.209,10.533,1.209,10.533H16.23c-.724-6.453-2.007-7-1.369-10.852.352-2.107-.146-5.522-.671-9.383-.12-.937-.253-1.9-.372-2.877v-.007c-.233-1.96-.425-3.98-.485-5.967-.013-.4-.02-.8-.02-1.189-.02-.4-.033-.791-.033-1.17-.027-9.895,6.712-13.6,15.311-12.34q1.057.159,2.133.3c.764.106,1.535.206,2.306.3a106.479,106.479,0,0,0,14.713.89c.791-.02,1.568-.047,2.326-.093a33.174,33.174,0,0,0,8.964-1.608c.066-.027.14-.047.206-.073.784-.279,1.528-.552,2.233-.811,5.921-2.18,9.283-3.5,12.373-1.728.02.013.047.027.066.04.485.286.95.578,1.4.89.206.133.412.272.611.419.525.372,1.037.751,1.515,1.136a62.51,62.51,0,0,1,5.642,5.223c1.283,1.243,3.083,2.685,1.482,5.735Z" transform="translate(-2.895 -2.686)" fill="#f4a86c"/>
    <g id="Grupo_891672" data-name="Grupo 891672" transform="translate(10.385 32.295)">
      <path id="Trazado_627957" data-name="Trazado 627957" d="M109.532,50.344a12.989,12.989,0,0,0-3.725-.6,1.163,1.163,0,1,0,0,2.326,10.729,10.729,0,0,1,3.061.5,1.149,1.149,0,0,0,.332.049,1.163,1.163,0,0,0,.332-2.278Z" transform="translate(-43.931 -40.791)" fill="#d78759"/>
      <path id="Trazado_627958" data-name="Trazado 627958" d="M41.78,38.669v.013a11.553,11.553,0,0,0-.086,1.814,1.164,1.164,0,0,1-1.143,1.183h-.02a1.164,1.164,0,0,1-1.163-1.143,14.487,14.487,0,0,1,.106-2.166C40.238,38.476,41.009,38.576,41.78,38.669Z" transform="translate(-22.03 -36.974)" fill="#d78759"/>
      <path id="Trazado_627959" data-name="Trazado 627959" d="M44.582,62.1c0-.009-.223-.726-.541-1.881a1.163,1.163,0,1,0-2.242.617c.332,1.2.561,1.948.561,1.948a1.144,1.144,0,0,0,.509.64,1.135,1.135,0,0,0-.217.152,37.857,37.857,0,0,0-2.9,2.911,1.163,1.163,0,1,0,1.735,1.549,35.579,35.579,0,0,1,2.724-2.731,1.162,1.162,0,0,0,.086-1.642,1.136,1.136,0,0,0-.255-.207,1.162,1.162,0,0,0,.544-1.356Z" transform="translate(-22.06 -44.019)" fill="#d78759"/>
      <path id="Trazado_627960" data-name="Trazado 627960" d="M66.245,75.658a27.2,27.2,0,0,1-1.256,3.974,1.173,1.173,0,0,1-.213.339l-1.741-.02a1.147,1.147,0,0,1-.2-1.2,24.887,24.887,0,0,0,1.143-3.628,1.164,1.164,0,0,1,2.266.532Z" transform="translate(-29.876 -49.004)" fill="#d78759"/>
      <path id="Trazado_627961" data-name="Trazado 627961" d="M64.83,56.649h.056a1.164,1.164,0,0,0,1.106-1.217c-.066-1.426-.169-2.857-.251-4.006a1.163,1.163,0,1,0-2.321.164c.062.876.133,1.838.189,2.839-1.079.191-2.137.383-3.141.6a1.164,1.164,0,0,0,.243,2.3,1.2,1.2,0,0,0,.246-.027c1.14-.245,2.362-.465,3.616-.682A1.166,1.166,0,0,0,64.83,56.649Z" transform="translate(-28.803 -40.992)" fill="#d78759"/>
      <path id="Trazado_627962" data-name="Trazado 627962" d="M67.4,40.233a17.091,17.091,0,0,0-.126,2.266c0,.485.013.99.033,1.515a1.161,1.161,0,0,1-1.116,1.209h-.047a1.168,1.168,0,0,1-1.163-1.116c-.02-.558-.033-1.09-.033-1.608a19.522,19.522,0,0,1,.126-2.386c.791-.02,1.568-.047,2.326-.093a.759.759,0,0,1,0,.213Z" transform="translate(-30.614 -37.528)" fill="#d78759"/>
      <path id="Trazado_627963" data-name="Trazado 627963" d="M85.334,48.09c.272.5.568,1.029.882,1.567-.792.266-1.588.528-2.382.764a1.163,1.163,0,0,0,.332,2.278,1.149,1.149,0,0,0,.332-.049c.991-.3,1.984-.623,2.97-.965a1.158,1.158,0,0,0,1.9-1.326c-.751-1.19-1.419-2.326-1.984-3.374a1.163,1.163,0,1,0-2.047,1.1Z" transform="translate(-36.67 -39.66)" fill="#d78759"/>
      <path id="Trazado_627964" data-name="Trazado 627964" d="M94.78,57.035a1.163,1.163,0,1,0-1.907,1.329c.763,1.092,1.562,2.193,2.377,3.268a1.163,1.163,0,0,0,1.855-1.4C96.308,59.179,95.526,58.1,94.78,57.035Z" transform="translate(-39.903 -43.057)" fill="#d78759"/>
      <path id="Trazado_627965" data-name="Trazado 627965" d="M84.892,41.619a1.163,1.163,0,0,1-1.508-.665,12.863,12.863,0,0,1-.944-3.874c.784-.279,1.528-.552,2.233-.811a1,1,0,0,1,.08.4v.02a10.113,10.113,0,0,0,.8,3.429,1.161,1.161,0,0,1-.665,1.5Z" transform="translate(-36.482 -36.27)" fill="#d78759"/>
      <path id="Trazado_627966" data-name="Trazado 627966" d="M36.586,74.412a1.164,1.164,0,0,0-1.619.293,21.78,21.78,0,0,0-2.035,3.483,1.165,1.165,0,0,0,2.139.922,19.576,19.576,0,0,1,1.809-3.079A1.164,1.164,0,0,0,36.586,74.412Z" transform="translate(-19.841 -48.996)" fill="#d78759"/>
      <path id="Trazado_627967" data-name="Trazado 627967" d="M72.509,57.094a1.187,1.187,0,0,0,.219-.021c1.417-.27,2.709-.546,3.949-.84a1.163,1.163,0,0,0-.538-2.263c-1.206.287-2.464.555-3.846.818a1.164,1.164,0,0,0,.217,2.306Z" transform="translate(-32.761 -42.197)" fill="#d78759"/>
      <path id="Trazado_627968" data-name="Trazado 627968" d="M52.739,59.01a18.763,18.763,0,0,0-3.81,1.845,1.163,1.163,0,1,0,1.25,1.961A16.523,16.523,0,0,1,53.522,61.2a1.164,1.164,0,1,0-.784-2.193Z" transform="translate(-25.059 -43.875)" fill="#d78759"/>
      <path id="Trazado_627969" data-name="Trazado 627969" d="M36.593,54a1.14,1.14,0,0,0,.2-.017c1.048-.182,1.952-.347,2.634-.474a1.316,1.316,0,0,0,.781-.471,1.125,1.125,0,0,0,.287.049,1.145,1.145,0,0,0,.258-.029,1.163,1.163,0,0,0,.877-1.392c-.346-1.528-.627-2.956-.832-4.246a1.163,1.163,0,1,0-2.3.366c.168,1.057.386,2.2.644,3.41-.677.128-1.609.3-2.709.49a1.19,1.19,0,0,0-1,1.084A1.165,1.165,0,0,0,36.593,54Z" transform="translate(-20.711 -39.681)" fill="#d78759"/>
      <path id="Trazado_627970" data-name="Trazado 627970" d="M18.45,57.7a1.165,1.165,0,0,1-1.09,1.229c-.691.04-1.329.06-1.887.06a13.527,13.527,0,0,1-2.14-.14c-.013-.4-.02-.8-.02-1.189-.02-.4-.033-.791-.033-1.17a1.324,1.324,0,0,1,.279.027,15.351,15.351,0,0,0,3.662.086,1.158,1.158,0,0,1,1.229,1.1Z" transform="translate(-13.28 -43.053)" fill="#d78759"/>
      <path id="Trazado_627971" data-name="Trazado 627971" d="M29.8,56.27a1.162,1.162,0,0,0-1.324-.977c-1.4.213-2.721.394-3.921.538a1.163,1.163,0,0,0,.141,2.32,1.1,1.1,0,0,0,.14-.009c1.223-.147,2.566-.332,3.992-.548A1.163,1.163,0,0,0,29.8,56.27Z" transform="translate(-16.712 -42.647)" fill="#d78759"/>
      <path id="Trazado_627972" data-name="Trazado 627972" d="M18.383,73.214a1.165,1.165,0,0,1-.977.532,1.146,1.146,0,0,1-.631-.186A28.12,28.12,0,0,1,14.462,71.9c-.12-.937-.253-1.9-.372-2.877v-.007a1.138,1.138,0,0,1,.93.292,23.047,23.047,0,0,0,3.017,2.3,1.168,1.168,0,0,1,.346,1.608Z" transform="translate(-13.552 -47.251)" fill="#d78759"/>
      <path id="Trazado_627973" data-name="Trazado 627973" d="M26.761,76.9c-.01,0-1.067-.423-2.531-1.162a1.163,1.163,0,1,0-1.047,2.077c1.567.79,2.679,1.23,2.725,1.249A1.163,1.163,0,0,0,26.76,76.9Z" transform="translate(-16.387 -49.468)" fill="#d78759"/>
      <path id="Trazado_627974" data-name="Trazado 627974" d="M94.449,72.436a.091.091,0,0,0-.02.027q-.558,1.057-1.116,2.053c-.518-.126-1.635-.379-3.083-.7a1.164,1.164,0,1,1,.505-2.273c1.881.419,3.216.725,3.4.771A1.172,1.172,0,0,1,94.449,72.436Z" transform="translate(-38.789 -48.095)" fill="#d78759"/>
      <path id="Trazado_627975" data-name="Trazado 627975" d="M82.862,69.886c-1.285-.266-2.629-.538-3.939-.785a1.163,1.163,0,1,0-.432,2.285c1.3.245,2.626.514,3.9.778a1.163,1.163,0,0,0,.474-2.277Z" transform="translate(-34.839 -47.277)" fill="#d78759"/>
      <path id="Trazado_627976" data-name="Trazado 627976" d="M70.915,66.147c-1.223-.185-2.173-.3-2.917-.339.045-.74.073-1.5.083-2.3a1.163,1.163,0,0,0-1.148-1.177h-.015a1.163,1.163,0,0,0-1.163,1.148c-.017,1.386-.088,2.653-.215,3.873a1.162,1.162,0,0,0,1.034,1.278c.041,0,.082.006.122.006a1.158,1.158,0,0,0,.96-.516,28.986,28.986,0,0,1,2.909.328,1.211,1.211,0,0,0,.175.013,1.163,1.163,0,0,0,.173-2.313Z" transform="translate(-30.81 -45.012)" fill="#d78759"/>
    </g>
    <path id="Trazado_627977" data-name="Trazado 627977" d="M104.2,32.189a1.968,1.968,0,0,0,.777,2.295l.07.046a1.953,1.953,0,0,0,2.99-1.282c.242-1.325.684-2.924,1.223-5.329C107.531,27.8,105.359,28.869,104.2,32.189Z" transform="translate(-33.36 -1.17)" fill="#d78759"/>
    <path id="Trazado_627978" data-name="Trazado 627978" d="M91.447,24.421a28.225,28.225,0,0,0-1.4,6.75,2.38,2.38,0,0,0,2.883,2.413l1.736-.367a2.387,2.387,0,0,0,1.9-2.447A6.476,6.476,0,0,0,91.447,24.421Z" transform="translate(-28.648 0)" fill="#d78759"/>
  </g>
</svg>
