<svg id="Cow_udder" data-name="Cow udder" xmlns="http://www.w3.org/2000/svg" width="46.771" height="52.756" viewBox="0 0 46.771 52.756">
  <path id="Trazado_627929" data-name="Trazado 627929" d="M43.392,49.15l-2.583,8.793h-9.2c.341-1.967,1.467-8.677,1.561-9.342Z" transform="translate(-17.25 -21.892)" fill="#b09482"/>
  <path id="Trazado_627930" data-name="Trazado 627930" d="M49.191,21.663A12.161,12.161,0,0,1,43.8,31.747l.989,1.649A1.621,1.621,0,0,1,42,35.044c-1.2-2.077-1.1-1.874-1.044-1.9a12.019,12.019,0,0,1-5.38.55l-.28,1.6a1.616,1.616,0,1,1-3.182-.55l.319-1.874a12.172,12.172,0,0,1-4.776-3.523l-1.3.747a1.618,1.618,0,1,1-1.577-2.825l1.171-.654a12.156,12.156,0,1,1,23.24-5Z" transform="translate(-13.8 -4.27)" fill="#d1384c"/>
  <path id="Trazado_627931" data-name="Trazado 627931" d="M51.523,20.652a12.09,12.09,0,0,1-2.885,8.919,13.107,13.107,0,0,1-13.222-.346,1.967,1.967,0,0,0-1.649-.148,1.149,1.149,0,0,1-1.506-1.1,2.577,2.577,0,0,0-.412-1.967,13.107,13.107,0,0,1-2.011-11.826,12.161,12.161,0,0,1,21.685,6.468Z" transform="translate(-16.176 -4.292)" fill="#ef6f83"/>
  <path id="Trazado_627932" data-name="Trazado 627932" d="M5.48,0h28.8V17.6H5.48Z" transform="translate(-5.48)" fill="#eddcd2"/>
  <path id="Trazado_627933" data-name="Trazado 627933" d="M34.281,20.158v6.27H5.48V23.845H20a10.644,10.644,0,0,0,7.522-3.115l1.1-1.1Z" transform="translate(-5.48 -8.843)" fill="#ddbea9"/>
  <path id="Trazado_627934" data-name="Trazado 627934" d="M5.48,21.8h5.583a.495.495,0,0,0,.352-.813l-.385-.39a2.918,2.918,0,0,0-2.05-.846H5.48Z" transform="translate(-5.48 -8.897)" fill="#ddbea9"/>
  <path id="Trazado_627935" data-name="Trazado 627935" d="M70.144,0a8.6,8.6,0,0,1-.495,2.693c-2.38,6.276-2.248,5.9-2.418,6.479A7.836,7.836,0,0,0,67.473,14c1.55,4.089,1.313,3.462,1.616,4.27a8.309,8.309,0,0,1,.181,5.292c-7.76,26.675-6.627,22.8-8.177,28.1H53.515c1.1-6.149,3.9-21.624,4.3-23.812a7.694,7.694,0,0,0-2.138-6.726L49.08,14.524a13.321,13.321,0,0,1-3.88-9.4V0Z" transform="translate(-23.372)" fill="#eddcd2"/>
  <path id="Trazado_627936" data-name="Trazado 627936" d="M61.088,86.39h8.04l-1.22,4.182H60.33Z" transform="translate(-30.188 -38.915)" fill="#495a83"/>
  <path id="Trazado_627937" data-name="Trazado 627937" d="M76.682,31.086c-3.638,12.464-3.3,11.354-6.979,23.921-8.666,0-8.045,0-8.034-.044,3.512-19.355,3.473-18.86,3.424-18.86a4.473,4.473,0,0,0,4.259-3.094l5.292-16.3a7.836,7.836,0,0,0,.242,4.825C76.435,25.624,76.2,25,76.5,25.8a8.309,8.309,0,0,1,.181,5.281Z" transform="translate(-30.785 -7.527)" fill="#ddbea9"/>
  <path id="Trazado_627938" data-name="Trazado 627938" d="M51.473,95.1H7.73a.55.55,0,1,1,0-1.1H51.473a.55.55,0,1,1,0,1.1Z" transform="translate(-6.246 -42.343)" fill="#06d6a0"/>
  <path id="Trazado_627939" data-name="Trazado 627939" d="M51.355,41.382a1.346,1.346,0,0,0-1.269-.962H47.75c.132.725.841,2.984.731,2.627a1.682,1.682,0,0,0,1.956,1.193A1.616,1.616,0,0,0,51.6,42.206Z" transform="translate(-24.521 -18.208)" fill="#d1384c"/>
  <path id="Trazado_627940" data-name="Trazado 627940" d="M53,0V7.2a6.364,6.364,0,0,1-1.286,3.847L49.09,14.508a13.321,13.321,0,0,1-3.88-9.4V0Z" transform="translate(-23.377)" fill="#cb997e"/>
  <path id="Trazado_627941" data-name="Trazado 627941" d="M22.9,70.89l1.951,12.7h13.81l1.951-12.7Z" transform="translate(-13.327 -31.933)" fill="#c2c2c2"/>
  <path id="Trazado_627942" data-name="Trazado 627942" d="M25.76,89.48H40.312l-.363,2.484H26.139Z" transform="translate(-14.615 -40.307)" fill="#d6d6d6"/>
  <rect id="Rect치ngulo_325324" data-name="Rect치ngulo 325324" width="20.437" height="2.924" rx="1.09" transform="translate(8.21 36.033)" fill="#d6d6d6"/>
  <rect id="Rect치ngulo_325325" data-name="Rect치ngulo 325325" width="9.875" height="2.924" rx="1.09" transform="translate(13.491 36.033)" fill="#ebebeb"/>
  <path id="Trazado_627943" data-name="Trazado 627943" d="M71.179,68.23,70.393,70.3a8.837,8.837,0,0,1-8.243,5.721l-.39,2.2h8.012l2.61-8.947Z" transform="translate(-30.832 -30.735)" fill="#c9a090"/>
  <path id="Trazado_627944" data-name="Trazado 627944" d="M83.632,38.05l-4.616,15.9-1.231-2.583a7.183,7.183,0,0,1-.489-4.83l2.2-8.99a7.309,7.309,0,0,1,1.649-3.1L83.2,32.17l.22.588a8.309,8.309,0,0,1,.214,5.292Z" transform="translate(-37.734 -14.491)" fill="#cb997e"/>
  <path id="Trazado_627945" data-name="Trazado 627945" d="M41.716,59.9,40.8,63.016H31.61c.121-.7.231-1.357.335-1.962C38.924,61.054,37.111,61.3,41.716,59.9Z" transform="translate(-17.25 -26.983)" fill="#a1856e"/>
  <path id="Trazado_627946" data-name="Trazado 627946" d="M41.375,70.89,40.1,76.743a3.374,3.374,0,0,1-3.3,2.671H33.857a7.143,7.143,0,0,0-4.615,1.692H41.88L43.468,70.89Z" transform="translate(-16.184 -31.933)" fill="#a8a8a8"/>
  <path id="Trazado_627947" data-name="Trazado 627947" d="M23.49,74.75h7.787a1.379,1.379,0,0,1,1.341,1.687l-.346,1.478a1.374,1.374,0,0,1-1.357,1.061H29.343a2.852,2.852,0,0,0-1.9.731l-2.8,2.517Z" transform="translate(-13.593 -33.672)" fill="#d6d6d6"/>
  <path id="Trazado_627948" data-name="Trazado 627948" d="M19.441,78.836a.55.55,0,0,1-.39-.934L29.564,67.389a.55.55,0,1,1,.775.78L19.832,78.677a.55.55,0,0,1-.39.159Z" transform="translate(-11.523 -30.284)" fill="#3d405b"/>
  <path id="Trazado_627949" data-name="Trazado 627949" d="M33.828,76.68h1.484a.6.6,0,0,1,.588.753l-.126.489a.583.583,0,0,1-.55.44h-.55a.885.885,0,0,1-.626-.258c-.5-.5-.583-.55-.588-.753V77.1a.418.418,0,0,1,.368-.423Z" transform="translate(-18.084 -34.541)" fill="#ebebeb"/>
  <path id="Trazado_627950" data-name="Trazado 627950" d="M71.862,23.066l-1.649,4.578A1.824,1.824,0,0,1,68.5,28.88h-.731a1.83,1.83,0,0,1-1.753-2.341l.418-1.418a4.435,4.435,0,0,1,2-2.583l1.6-.951a1.253,1.253,0,0,1,1.824,1.478Z" transform="translate(-32.718 -9.646)" fill="#ddbea9"/>
  <path id="Trazado_627951" data-name="Trazado 627951" d="M76.531,0a8.694,8.694,0,0,1-.385,2.369H64.4A7.089,7.089,0,0,0,59.38,4.446V0Z" transform="translate(-29.76)" fill="#fff1e6"/>
</svg>
