<svg xmlns="http://www.w3.org/2000/svg" width="55.762" height="52.756" viewBox="0 0 55.762 52.756">
  <g id="gallina" transform="translate(-0.001 -13.805)">
    <g id="Grupo_891689" data-name="Grupo 891689" transform="translate(0.001 13.805)">
      <g id="Grupo_891688" data-name="Grupo 891688" transform="translate(0 0)">
        <g id="Grupo_891685" data-name="Grupo 891685" transform="translate(22.193 39.224)">
          <path id="Trazado_628003" data-name="Trazado 628003" d="M211.491,385.8h-2.6V374.8a.841.841,0,1,0-1.683,0V385.8h-2.6a.841.841,0,0,0,0,1.683h6.873a.841.841,0,1,0,0-1.683Z" transform="translate(-203.776 -373.955)" fill="#ffba7c"/>
          <path id="Trazado_628004" data-name="Trazado 628004" d="M313.477,385.8h-2.6V374.8a.841.841,0,1,0-1.683,0V385.8h-2.6a.841.841,0,0,0,0,1.683h6.873a.841.841,0,1,0,0-1.683Z" transform="translate(-294.655 -373.955)" fill="#ffba7c"/>
        </g>
        <path id="Trazado_628005" data-name="Trazado 628005" d="M348.593,22.9c-.379-.072-4.034-.8-4.132-2.53-.048-.849.769-1.754,2.035-2.427a1.223,1.223,0,0,0,.655-1.2,2.532,2.532,0,0,1,.252-1.5c.878-1.62,3.794-1.915,5.323-.632a2.976,2.976,0,0,1,.616.716,1.2,1.2,0,0,0,1.455.476,3.03,3.03,0,0,1,2.272-.068,2.944,2.944,0,0,1,1.821,2.6c-.091,2.617-5.65,5.448-10.3,4.567Z" transform="translate(-306.943 -13.805)" fill="#fec0dd"/>
        <path id="Trazado_628006" data-name="Trazado 628006" d="M16.055,126.744A32.512,32.512,0,0,0,5.69,113.94a1.057,1.057,0,0,0-1.678.644,11.191,11.191,0,0,0,.361,5.96c1.385,3.807,4.783,5.671,4.476,6.154-.2.312-1.808-.15-7.306-3a1.059,1.059,0,0,0-1.537,1.052,7.75,7.75,0,0,0,1.257,3.49,10.783,10.783,0,0,0,4.723,3.371.927.927,0,0,1,.125,1.674,2.574,2.574,0,0,1-.562.225,5.131,5.131,0,0,1-1.83.285,1.056,1.056,0,0,0-.9,1.69,12.09,12.09,0,0,0,3.65,3.268c3.315,1.907,8.676,2.81,11.008.287C20.191,136.114,17.494,130,16.055,126.744Z" transform="translate(-0.001 -102.841)" fill="#e7efff"/>
        <path id="Trazado_628007" data-name="Trazado 628007" d="M447.907,123.946c1.588.143,3.566,4.31,1.973,6.927-1.242,2.04-4.468,2.829-5.425,1.855-.236-.24-.422-.678-.185-2.1C444.694,128.082,446.234,123.8,447.907,123.946Z" transform="translate(-395.786 -111.947)" fill="#ff678d"/>
        <path id="Trazado_628008" data-name="Trazado 628008" d="M442.914,94.32c.188-.057,3.314-.946,5.425,1.051a4.805,4.805,0,0,1,1.189,1.82.5.5,0,0,1-.344.656l-7.256,1.791Z" transform="translate(-393.797 -85.332)" fill="#ffba7c"/>
        <path id="Trazado_628009" data-name="Trazado 628009" d="M83.339,214.339C79.6,216.31,78.873,224.2,82.1,227.4a5.005,5.005,0,0,0,1.051.8q.622.361,1.324.776a5.775,5.775,0,0,0,4.346-1.547c2.707-2.928.01-9.039-1.429-12.3-.286-.647-.643-1.4-1.092-2.218-.949.419-1.9.876-2.863,1.378Z" transform="translate(-71.335 -191.225)" fill="#d3dbfe"/>
        <path id="Trazado_628010" data-name="Trazado 628010" d="M113,91.994a6.985,6.985,0,0,1-1.756-3.364c-.076-.317.171-.629.126-.958-.036-.262-.37-.539-.388-.8-.212-3.235.947-6.714,3.26-7.933l.1-.05a47.992,47.992,0,0,1,6.614-2.853c.241-.083.473.144.713.066.369-.121.746-.545,1.111-.655a50.4,50.4,0,0,1,7.615-1.663c.392-.055.7.321,1.082.277.188-.022.452-.468.637-.487,1.772-.187,3.408-.269,4.871-.289a1.35,1.35,0,0,0,.4-.065c.322-.1.892.035,1.057-.247.133-.227-.1-.853-.123-1.13a1.362,1.362,0,0,0-.046-.268,9.164,9.164,0,0,1-.235-4.007c.043-.245.44-.233.509-.482.094-.338-.127-.939.023-1.281q.063-.143.132-.286c1.112-2.283,3.722-4.863,6.658-4.527,4.308.493,4.565,4.667,4.559,8.129q0,.669,0,1.31c0,.292-.425.588-.427.872s.416.542.413.811c-.029,2.394-.09,4.482-.2,6.32-.015.252-.4.5-.419.745-.025.348.319.683.29,1.012A22.644,22.644,0,0,1,147.5,88.8q-.158.305-.322.6c-.225.408-.719.2-.957.582-.146.235-.034,1.07-.184,1.3a27.1,27.1,0,0,1-2.639,3.354c-.137.148-.837.264-.974.406-.27.281.022.58-.248.839a29.2,29.2,0,0,1-3.5,2.866,3.137,3.137,0,0,1-3.991-.328l-1.2-1.175c-.047-.046-.084-.533-.13-.578a2.971,2.971,0,0,0-2.789-.4,3.128,3.128,0,0,0-1.266.55l-2.228,1.63a3.135,3.135,0,0,1-3.519.125c-1.576-.99-2.983-1.863-4.244-2.637-.307-.188-.181-.486-.471-.663-.226-.138-.871-.156-1.087-.287-1.424-.863-2.639-1.583-3.692-2.194a5,5,0,0,1-1.051-.8Z" transform="translate(-98.874 -55.821)" fill="#ff678d"/>
        <g id="Grupo_891686" data-name="Grupo 891686" transform="translate(36.316 5.136)">
          <path id="Trazado_628011" data-name="Trazado 628011" d="M343.61,60.988a4.841,4.841,0,0,0-2.172.263c3.162,1.076,3.37,4.757,3.365,7.866-.018,10.642-.474,15.956-2.412,19.69a27.763,27.763,0,0,1-8.827,9.944c-.038.026-.077.049-.116.073a3.138,3.138,0,0,0,3.482-.073,29.208,29.208,0,0,0,3.5-2.866c.233-.223.015-.6.248-.839.174-.179.8-.218.974-.406a27.091,27.091,0,0,0,2.639-3.354c.2-.3.153-1.1.344-1.415s.616-.134.8-.463q.164-.3.322-.6a22.641,22.641,0,0,0,2.063-8.619c.022-.248-.408-.5-.388-.758.023-.314.495-.637.515-.967.113-1.846.175-3.945.2-6.353,0-.214-.415-.593-.413-.811,0-.339.425-.521.427-.872q0-.641,0-1.31C348.175,65.655,347.919,61.481,343.61,60.988Z" transform="translate(-333.448 -60.958)" fill="#ff5079"/>
        </g>
        <g id="Grupo_891687" data-name="Grupo 891687" transform="translate(12.11 15.982)">
          <path id="Trazado_628012" data-name="Trazado 628012" d="M121.161,194.558a16.584,16.584,0,0,0,1.536,10.012,21.1,21.1,0,0,1-11.505.823,10.6,10.6,0,0,0,.262,1.763,23.5,23.5,0,0,0,4.1.362,22.324,22.324,0,0,0,8.156-1.53c.165-.064.328-.131.491-.2l.009,0a22.407,22.407,0,0,0,7.344-4.984.841.841,0,0,0-1.2-1.181,20.773,20.773,0,0,1-6.1,4.3,14.91,14.91,0,0,1-1.271-9.955Q122.081,194.241,121.161,194.558Z" transform="translate(-111.192 -190.329)" fill="#f3e8ce"/>
          <path id="Trazado_628013" data-name="Trazado 628013" d="M331.739,272.345c-4.29-3.576-9.953-1.526-10.191-1.437a.842.842,0,0,0,.588,1.577c.049-.018,4.978-1.805,8.526,1.153a7.885,7.885,0,0,1,2.54,4.139q.593-.891,1.141-1.878A9.262,9.262,0,0,0,331.739,272.345Z" transform="translate(-298.149 -258.297)" fill="#f3e8ce"/>
          <path id="Trazado_628014" data-name="Trazado 628014" d="M419.253,294.139a15.285,15.285,0,0,1-.661,1.769,8.184,8.184,0,0,1,1.573,3.163c.271-.406.585-.921.594-.935.187-.309.349-.585.546-.943h0A9.354,9.354,0,0,0,419.253,294.139Z" transform="translate(-385.113 -279.59)" fill="#ffd09d"/>
          <path id="Trazado_628015" data-name="Trazado 628015" d="M308.149,167.21a17.636,17.636,0,0,0-4.5-.2,18.951,18.951,0,0,0-6.881-6.457,1.354,1.354,0,0,1-.929,1.409,17.266,17.266,0,0,1,5.956,5.3,17.746,17.746,0,0,0-6.253,2.52.83.83,0,0,0-.611-.212,3.8,3.8,0,0,1-2-.377c-1.842-.957-2.776-3.738-2.356-6.879q-.84.089-1.719.21c-.376,3.706.887,6.909,3.3,8.162a5.06,5.06,0,0,0,1.53.5.841.841,0,0,0,1.212,1.147,15.964,15.964,0,0,1,13.132-3.441Q308.1,168.09,308.149,167.21Z" transform="translate(-269.445 -160.553)" fill="#f3e8ce"/>
          <path id="Trazado_628016" data-name="Trazado 628016" d="M434.843,219.28q-.051.883-.117,1.692a16.444,16.444,0,0,1,3.345.254q.052-.6.1-1.247s0-.008,0-.012q.014-.212.027-.428h0A17.718,17.718,0,0,0,434.843,219.28Z" transform="translate(-399.49 -212.882)" fill="#ffd09d"/>
          <path id="Trazado_628017" data-name="Trazado 628017" d="M193.894,352.243a8.526,8.526,0,0,0-5.746,2.6c-1.17-.963-5.28-3.923-10.373-2.832a11.137,11.137,0,0,0-4.5,2.119q.74.449,1.557.95a9.346,9.346,0,0,1,3.3-1.423,10.588,10.588,0,0,1,7.957,1.755,3.135,3.135,0,0,1,2.78.84l.141.138a6.946,6.946,0,0,1,4.939-2.469,6.594,6.594,0,0,1,3.782,1.083q.6-.574,1.2-1.222A8.355,8.355,0,0,0,193.894,352.243Z" transform="translate(-166.51 -330.951)" fill="#f3e8ce"/>
          <path id="Trazado_628018" data-name="Trazado 628018" d="M377.016,359.506q-.617.75-1.248,1.416a6.79,6.79,0,0,1,2.4.972q.3-.286.6-.59l.3-.313q.149-.157.3-.318A8.669,8.669,0,0,0,377.016,359.506Z" transform="translate(-346.953 -337.838)" fill="#ffd09d"/>
        </g>
        <path id="Trazado_628019" data-name="Trazado 628019" d="M203.042,230.45a.247.247,0,0,1-.22-.343,17.57,17.57,0,0,1,8.3-9.195c.809-.384,7.032-3.333,9.629-.529,1.644,1.775,1.385,5.368-.264,7.411-1.54,1.908-4.477,2.136-10.289,2.514C207.232,230.5,204.756,230.495,203.042,230.45Z" transform="translate(-180.715 -196.818)" fill="#ffdbeb"/>
        <path id="Trazado_628020" data-name="Trazado 628020" d="M225.313,220.384c-1.214-1.311-3.22-1.364-5.1-1.01a3.577,3.577,0,0,1,1.729,1.01c1.644,1.775,1.385,5.368-.264,7.411-1.54,1.908-4.477,2.136-10.289,2.514-1.255.082-2.42.127-3.479.15,1.7.037,4.051.032,6.844-.15,5.811-.378,8.748-.606,10.289-2.514C226.7,225.752,226.957,222.158,225.313,220.384Z" transform="translate(-185.272 -196.819)" fill="#fec0dd"/>
      </g>
      <path id="Trazado_628021" data-name="Trazado 628021" d="M366.3,109.092a18.151,18.151,0,0,1-6.244-3.667,7.732,7.732,0,0,0-.533,1.763,19.778,19.778,0,0,0,11.835,4.545h.026q.01-.818.014-1.684A18.135,18.135,0,0,1,366.3,109.092Z" transform="translate(-320.371 -95.447)" fill="#f3e8ce"/>
      <path id="Trazado_628022" data-name="Trazado 628022" d="M437.588,143.654q0,.887-.012,1.723a19.909,19.909,0,0,0,3.335.422h.026q0-.4.008-.818c0-.007,0-.014,0-.021q0-.414.006-.839v0A18.22,18.22,0,0,1,437.588,143.654Z" transform="translate(-389.919 -129.512)" fill="#ffd09d"/>
    </g>
  </g>
</svg>
